<svg width="16" height="16" viewBox="0 0 16 16" fill="none" xmlns="http://www.w3.org/2000/svg">
<mask id="path-1-inside-1_701_2544" fill="white">
<path fill-rule="evenodd" clip-rule="evenodd" d="M5.58074 0.19874C5.02189 0.246139 4.51765 0.419054 4.06074 0.719982C3.38188 1.16709 2.89409 1.85751 2.70123 2.64424C2.63887 2.89859 2.61114 3.13564 2.61114 3.41422C2.61114 3.83813 2.68007 4.2042 2.83347 4.59502C3.2169 5.57189 4.06824 6.30913 5.09114 6.55014C5.60812 6.67194 6.18729 6.66117 6.68794 6.52045C7.2271 6.3689 7.69537 6.09824 8.09172 5.70908C8.57137 5.23811 8.89198 4.62823 9.00706 3.96782C9.08914 3.49681 9.063 2.98533 8.93381 2.53447C8.78019 1.99838 8.50439 1.529 8.11194 1.13574C7.56353 0.586196 6.85101 0.258523 6.07386 0.198471C5.97559 0.190881 5.67147 0.191041 5.58074 0.19874ZM5.69914 1.19398C5.68506 1.19537 5.64186 1.19952 5.60314 1.20321C5.21473 1.2402 4.81381 1.39747 4.49738 1.63697C4.13617 1.91037 3.86819 2.28167 3.72741 2.70382C3.67422 2.86331 3.65039 2.96673 3.6275 3.13736C3.60884 3.27649 3.60739 3.52854 3.62446 3.66702C3.68636 4.16906 3.89427 4.60441 4.243 4.96221C4.62006 5.34906 5.0991 5.57593 5.64474 5.62606C5.7359 5.63443 6.02302 5.63009 6.09914 5.61919C6.37673 5.57945 6.60623 5.50979 6.83153 5.39688C7.24794 5.18823 7.60611 4.83077 7.81411 4.41629C7.91035 4.22451 7.98285 4.00744 8.01876 3.8036C8.04466 3.65653 8.04778 3.61483 8.04786 3.41422C8.04794 3.21281 8.04506 3.17418 8.01848 3.02062C7.95748 2.66812 7.79641 2.31274 7.56743 2.02542C7.49542 1.93507 7.30661 1.74651 7.21594 1.6744C6.89255 1.4172 6.51436 1.25949 6.09274 1.20602C6.01747 1.19647 5.75523 1.18845 5.69914 1.19398ZM14.1055 7.20306C14.0196 7.21361 13.9453 7.22784 13.8687 7.24839C13.8353 7.25737 13.1297 7.45309 12.3007 7.68333C11.333 7.95211 10.7679 8.11203 10.7219 8.13013C10.4065 8.25425 10.1431 8.48959 9.97647 8.79598C9.90299 8.93112 9.84606 9.09198 9.81771 9.24462C9.7919 9.38355 9.79206 9.37309 9.792 10.9526C9.79194 12.3934 9.79139 12.4683 9.78074 12.465C9.77458 12.4631 9.73435 12.4468 9.69133 12.429C9.5584 12.3737 9.39182 12.3316 9.23194 12.3128C9.13271 12.3011 8.91788 12.3028 8.81914 12.316C8.55682 12.3511 8.31637 12.4372 8.10337 12.5723C7.34305 13.0543 7.06947 14.0236 7.46561 14.8318C7.54588 14.9956 7.64576 15.1374 7.77585 15.2724C8.06084 15.5681 8.42862 15.7505 8.83537 15.7981C8.93057 15.8093 9.11992 15.8108 9.21686 15.8013C9.61309 15.7623 9.99395 15.5812 10.2788 15.2963C10.5259 15.0492 10.6984 14.7242 10.7614 14.387C10.7916 14.2251 10.7905 14.3246 10.7904 11.8494C10.7904 10.2921 10.7926 9.5073 10.797 9.46882C10.8052 9.39775 10.8176 9.3536 10.8456 9.29582C10.8924 9.19922 10.9674 9.12156 11.0559 9.078C11.1225 9.04525 14.1399 8.20791 14.226 8.19832C14.3006 8.19 14.3667 8.19772 14.4385 8.2231C14.5128 8.2494 14.5561 8.27789 14.6245 8.34542C14.6937 8.41374 14.7256 8.46432 14.7517 8.54694L14.7679 8.59822L14.7697 9.78085L14.7714 10.9635L14.7521 10.9535C14.7142 10.9339 14.5763 10.8851 14.4991 10.8639C14.2162 10.7864 13.8885 10.7839 13.604 10.8572C13.103 10.9862 12.6894 11.3229 12.4639 11.7854C12.3305 12.0589 12.2739 12.3391 12.2888 12.651C12.3268 13.4441 12.9078 14.1181 13.6887 14.2749C13.8215 14.3016 13.8783 14.3067 14.0415 14.3066C14.158 14.3065 14.2181 14.3036 14.2751 14.2952C14.6395 14.2415 14.9522 14.0948 15.2223 13.851C15.4541 13.6418 15.6364 13.348 15.7242 13.0422C15.7778 12.8557 15.8009 12.6449 15.7874 12.467C15.7832 12.4127 15.7791 11.6738 15.7762 10.4766C15.7714 8.45402 15.7729 8.54168 15.7401 8.37742C15.6359 7.85567 15.2189 7.40513 14.7007 7.25449C14.6025 7.22593 14.5133 7.20776 14.4329 7.1999C14.345 7.19131 14.1889 7.19282 14.1055 7.20306ZM5.64794 7.33212C5.54325 7.33515 5.36818 7.34732 5.24154 7.36038C3.6918 7.52022 2.23601 8.33237 1.24452 9.59022C0.804398 10.1486 0.479195 10.7554 0.260065 11.4272C0.200743 11.6091 0.193947 11.679 0.22443 11.7936C0.304769 12.0958 0.639169 12.2515 0.920974 12.1179C1.03726 12.0628 1.12124 11.9775 1.16649 11.8683C1.17518 11.8474 1.19599 11.7885 1.21277 11.7374C1.42337 11.0965 1.72739 10.5595 2.17839 10.0318C2.276 9.9176 2.5681 9.6255 2.68474 9.52545C3.41477 8.8993 4.25547 8.51093 5.16794 8.37827C5.52891 8.32579 5.94474 8.31743 6.31034 8.35528C6.89138 8.41544 7.42932 8.57549 7.98714 8.85417C8.0593 8.89022 8.13516 8.92458 8.15572 8.93052C8.34647 8.98562 8.56331 8.9177 8.68245 8.76552C8.75525 8.67253 8.79358 8.56419 8.7935 8.4516C8.79338 8.28084 8.71389 8.12837 8.57669 8.03571C8.50256 7.98564 8.18748 7.83465 7.98714 7.75318C7.2382 7.44864 6.46037 7.30863 5.64794 7.33212ZM13.9686 11.8081C13.7878 11.8245 13.6189 11.9073 13.4911 12.042C13.3932 12.1452 13.3326 12.2625 13.3012 12.4094C13.2852 12.4842 13.2852 12.6292 13.3012 12.7035C13.358 12.9674 13.5311 13.1692 13.7817 13.2634C13.9336 13.3205 14.1427 13.3207 14.2937 13.2638C14.4697 13.1976 14.6149 13.0729 14.6998 12.915C14.7541 12.8141 14.7874 12.6947 14.7774 12.6366C14.7744 12.619 14.7717 12.5531 14.7715 12.4902C14.7712 12.3794 14.7705 12.3739 14.7513 12.3174C14.683 12.117 14.5365 11.9561 14.3439 11.8697C14.2801 11.841 14.1921 11.8167 14.133 11.8114C14.0457 11.8035 14.0245 11.8031 13.9686 11.8081ZM8.90554 13.3156C8.8046 13.3346 8.70266 13.3767 8.60892 13.4381C8.55748 13.4718 8.44978 13.5817 8.41298 13.6381C8.32239 13.7769 8.28283 13.9216 8.28986 14.0884C8.29422 14.1916 8.30606 14.2481 8.34208 14.3374C8.49313 14.7122 8.90621 14.8976 9.29219 14.764C9.49532 14.6937 9.66663 14.5248 9.74266 14.3198C9.8435 14.048 9.7791 13.7386 9.57924 13.5347C9.47498 13.4283 9.35649 13.3609 9.20954 13.3243C9.13695 13.3062 8.97957 13.3017 8.90554 13.3156Z"/>
</mask>
<path fill-rule="evenodd" clip-rule="evenodd" d="M5.58074 0.19874C5.02189 0.246139 4.51765 0.419054 4.06074 0.719982C3.38188 1.16709 2.89409 1.85751 2.70123 2.64424C2.63887 2.89859 2.61114 3.13564 2.61114 3.41422C2.61114 3.83813 2.68007 4.2042 2.83347 4.59502C3.2169 5.57189 4.06824 6.30913 5.09114 6.55014C5.60812 6.67194 6.18729 6.66117 6.68794 6.52045C7.2271 6.3689 7.69537 6.09824 8.09172 5.70908C8.57137 5.23811 8.89198 4.62823 9.00706 3.96782C9.08914 3.49681 9.063 2.98533 8.93381 2.53447C8.78019 1.99838 8.50439 1.529 8.11194 1.13574C7.56353 0.586196 6.85101 0.258523 6.07386 0.198471C5.97559 0.190881 5.67147 0.191041 5.58074 0.19874ZM5.69914 1.19398C5.68506 1.19537 5.64186 1.19952 5.60314 1.20321C5.21473 1.2402 4.81381 1.39747 4.49738 1.63697C4.13617 1.91037 3.86819 2.28167 3.72741 2.70382C3.67422 2.86331 3.65039 2.96673 3.6275 3.13736C3.60884 3.27649 3.60739 3.52854 3.62446 3.66702C3.68636 4.16906 3.89427 4.60441 4.243 4.96221C4.62006 5.34906 5.0991 5.57593 5.64474 5.62606C5.7359 5.63443 6.02302 5.63009 6.09914 5.61919C6.37673 5.57945 6.60623 5.50979 6.83153 5.39688C7.24794 5.18823 7.60611 4.83077 7.81411 4.41629C7.91035 4.22451 7.98285 4.00744 8.01876 3.8036C8.04466 3.65653 8.04778 3.61483 8.04786 3.41422C8.04794 3.21281 8.04506 3.17418 8.01848 3.02062C7.95748 2.66812 7.79641 2.31274 7.56743 2.02542C7.49542 1.93507 7.30661 1.74651 7.21594 1.6744C6.89255 1.4172 6.51436 1.25949 6.09274 1.20602C6.01747 1.19647 5.75523 1.18845 5.69914 1.19398ZM14.1055 7.20306C14.0196 7.21361 13.9453 7.22784 13.8687 7.24839C13.8353 7.25737 13.1297 7.45309 12.3007 7.68333C11.333 7.95211 10.7679 8.11203 10.7219 8.13013C10.4065 8.25425 10.1431 8.48959 9.97647 8.79598C9.90299 8.93112 9.84606 9.09198 9.81771 9.24462C9.7919 9.38355 9.79206 9.37309 9.792 10.9526C9.79194 12.3934 9.79139 12.4683 9.78074 12.465C9.77458 12.4631 9.73435 12.4468 9.69133 12.429C9.5584 12.3737 9.39182 12.3316 9.23194 12.3128C9.13271 12.3011 8.91788 12.3028 8.81914 12.316C8.55682 12.3511 8.31637 12.4372 8.10337 12.5723C7.34305 13.0543 7.06947 14.0236 7.46561 14.8318C7.54588 14.9956 7.64576 15.1374 7.77585 15.2724C8.06084 15.5681 8.42862 15.7505 8.83537 15.7981C8.93057 15.8093 9.11992 15.8108 9.21686 15.8013C9.61309 15.7623 9.99395 15.5812 10.2788 15.2963C10.5259 15.0492 10.6984 14.7242 10.7614 14.387C10.7916 14.2251 10.7905 14.3246 10.7904 11.8494C10.7904 10.2921 10.7926 9.5073 10.797 9.46882C10.8052 9.39775 10.8176 9.3536 10.8456 9.29582C10.8924 9.19922 10.9674 9.12156 11.0559 9.078C11.1225 9.04525 14.1399 8.20791 14.226 8.19832C14.3006 8.19 14.3667 8.19772 14.4385 8.2231C14.5128 8.2494 14.5561 8.27789 14.6245 8.34542C14.6937 8.41374 14.7256 8.46432 14.7517 8.54694L14.7679 8.59822L14.7697 9.78085L14.7714 10.9635L14.7521 10.9535C14.7142 10.9339 14.5763 10.8851 14.4991 10.8639C14.2162 10.7864 13.8885 10.7839 13.604 10.8572C13.103 10.9862 12.6894 11.3229 12.4639 11.7854C12.3305 12.0589 12.2739 12.3391 12.2888 12.651C12.3268 13.4441 12.9078 14.1181 13.6887 14.2749C13.8215 14.3016 13.8783 14.3067 14.0415 14.3066C14.158 14.3065 14.2181 14.3036 14.2751 14.2952C14.6395 14.2415 14.9522 14.0948 15.2223 13.851C15.4541 13.6418 15.6364 13.348 15.7242 13.0422C15.7778 12.8557 15.8009 12.6449 15.7874 12.467C15.7832 12.4127 15.7791 11.6738 15.7762 10.4766C15.7714 8.45402 15.7729 8.54168 15.7401 8.37742C15.6359 7.85567 15.2189 7.40513 14.7007 7.25449C14.6025 7.22593 14.5133 7.20776 14.4329 7.1999C14.345 7.19131 14.1889 7.19282 14.1055 7.20306ZM5.64794 7.33212C5.54325 7.33515 5.36818 7.34732 5.24154 7.36038C3.6918 7.52022 2.23601 8.33237 1.24452 9.59022C0.804398 10.1486 0.479195 10.7554 0.260065 11.4272C0.200743 11.6091 0.193947 11.679 0.22443 11.7936C0.304769 12.0958 0.639169 12.2515 0.920974 12.1179C1.03726 12.0628 1.12124 11.9775 1.16649 11.8683C1.17518 11.8474 1.19599 11.7885 1.21277 11.7374C1.42337 11.0965 1.72739 10.5595 2.17839 10.0318C2.276 9.9176 2.5681 9.6255 2.68474 9.52545C3.41477 8.8993 4.25547 8.51093 5.16794 8.37827C5.52891 8.32579 5.94474 8.31743 6.31034 8.35528C6.89138 8.41544 7.42932 8.57549 7.98714 8.85417C8.0593 8.89022 8.13516 8.92458 8.15572 8.93052C8.34647 8.98562 8.56331 8.9177 8.68245 8.76552C8.75525 8.67253 8.79358 8.56419 8.7935 8.4516C8.79338 8.28084 8.71389 8.12837 8.57669 8.03571C8.50256 7.98564 8.18748 7.83465 7.98714 7.75318C7.2382 7.44864 6.46037 7.30863 5.64794 7.33212ZM13.9686 11.8081C13.7878 11.8245 13.6189 11.9073 13.4911 12.042C13.3932 12.1452 13.3326 12.2625 13.3012 12.4094C13.2852 12.4842 13.2852 12.6292 13.3012 12.7035C13.358 12.9674 13.5311 13.1692 13.7817 13.2634C13.9336 13.3205 14.1427 13.3207 14.2937 13.2638C14.4697 13.1976 14.6149 13.0729 14.6998 12.915C14.7541 12.8141 14.7874 12.6947 14.7774 12.6366C14.7744 12.619 14.7717 12.5531 14.7715 12.4902C14.7712 12.3794 14.7705 12.3739 14.7513 12.3174C14.683 12.117 14.5365 11.9561 14.3439 11.8697C14.2801 11.841 14.1921 11.8167 14.133 11.8114C14.0457 11.8035 14.0245 11.8031 13.9686 11.8081ZM8.90554 13.3156C8.8046 13.3346 8.70266 13.3767 8.60892 13.4381C8.55748 13.4718 8.44978 13.5817 8.41298 13.6381C8.32239 13.7769 8.28283 13.9216 8.28986 14.0884C8.29422 14.1916 8.30606 14.2481 8.34208 14.3374C8.49313 14.7122 8.90621 14.8976 9.29219 14.764C9.49532 14.6937 9.66663 14.5248 9.74266 14.3198C9.8435 14.048 9.7791 13.7386 9.57924 13.5347C9.47498 13.4283 9.35649 13.3609 9.20954 13.3243C9.13695 13.3062 8.97957 13.3017 8.90554 13.3156Z" fill="#CDD5DF" stroke="#CDD5DF" stroke-width="0.0128" mask="url(#path-1-inside-1_701_2544)"/>
</svg>
