<svg width="16" height="14" viewBox="0 0 16 14" fill="none" xmlns="http://www.w3.org/2000/svg">
<path d="M2.85713 8.14279L0.822845 11.0571C0.731083 11.2358 0.688049 11.4355 0.698081 11.6362C0.708114 11.8368 0.770857 12.0313 0.879988 12.1999C0.982925 12.3646 1.12614 12.5004 1.29611 12.5944C1.46608 12.6883 1.65719 12.7375 1.85142 12.7371H14.1486C14.3428 12.7375 14.5339 12.6883 14.7039 12.5944C14.8738 12.5004 15.0171 12.3646 15.12 12.1999C15.2203 12.0262 15.2731 11.8291 15.2731 11.6285C15.2731 11.4279 15.2203 11.2308 15.12 11.0571L13.1428 8.14279M2.85713 8.14279V2.4285C2.85713 2.1254 2.97754 1.83471 3.19187 1.62038C3.40619 1.40605 3.69688 1.28564 3.99999 1.28564H12C12.3031 1.28564 12.5938 1.40605 12.8081 1.62038C13.0224 1.83471 13.1428 2.1254 13.1428 2.4285V8.14279M2.85713 8.14279H13.1428" stroke="#CDD5DF" stroke-linecap="round" stroke-linejoin="round"/>
</svg>
