<svg width="12" height="16" viewBox="0 0 12 16" fill="none" xmlns="http://www.w3.org/2000/svg">
<mask id="path-1-inside-1_701_2558" fill="white">
<path fill-rule="evenodd" clip-rule="evenodd" d="M4.90878 0.00446604C4.41262 0.0492532 3.95257 0.223455 3.55838 0.515807C3.32247 0.690764 3.10771 0.916268 2.94272 1.16226C2.69664 1.52916 2.54615 1.95388 2.50588 2.39521C2.49635 2.49972 2.49628 7.49649 2.50582 7.60198C2.55511 8.14735 2.763 8.64559 3.11928 9.0722C3.23253 9.2078 3.42844 9.39026 3.57758 9.49902C3.91792 9.74722 4.31922 9.91228 4.73424 9.97479C4.91978 10.0027 4.94909 10.0034 5.99998 10.0034C7.05088 10.0034 7.08019 10.0027 7.26573 9.97479C8.4635 9.79439 9.38466 8.81358 9.49414 7.60207C9.50348 7.49874 9.50361 2.50694 9.49428 2.40152C9.47154 2.14465 9.41642 1.91087 9.31971 1.661C9.27655 1.54949 9.16434 1.32879 9.09746 1.22385C8.83831 0.817285 8.48828 0.49838 8.06359 0.281925C7.80085 0.148012 7.53811 0.065746 7.21968 0.017682C7.1307 0.00424844 7.11603 0.00406924 6.03198 0.00312204C5.4283 0.00259084 4.92286 0.00319884 4.90878 0.00446604ZM4.98238 1.00306C4.91877 1.00841 4.78895 1.03213 4.70974 1.0529C4.44018 1.12356 4.19885 1.26057 3.99439 1.45905C3.77872 1.66838 3.62309 1.9357 3.54894 2.2242C3.5046 2.39671 3.49555 2.50201 3.50125 2.7794L3.50582 3.0018H4.28604C5.15108 3.0018 5.10913 2.99987 5.20536 3.04397C5.33694 3.10427 5.43923 3.22031 5.48061 3.35624C5.4941 3.40055 5.49648 3.42139 5.49676 3.4978C5.49713 3.59911 5.48864 3.64091 5.45255 3.7154C5.392 3.84035 5.2779 3.93903 5.14567 3.9808L5.09438 3.997L4.29918 3.99874L3.50398 4.00048V4.49937V4.99826L4.29598 5.00013L5.08798 5.002L5.13484 5.01645C5.30579 5.06916 5.42896 5.19207 5.48249 5.3634C5.50369 5.43123 5.50389 5.56086 5.48291 5.63417C5.42631 5.83202 5.25926 5.9734 5.05434 5.99688C5.0201 6.0008 4.70835 6.00331 4.25118 6.00335L3.50398 6.0034L3.50238 6.629C3.50014 7.50717 3.50018 7.51108 3.51328 7.6002C3.61247 8.27478 4.11429 8.81741 4.77394 8.96339C4.93582 8.99921 4.91433 8.9986 5.99998 8.9986C7.08635 8.9986 7.06494 8.99922 7.22603 8.96323C7.64978 8.86857 8.01444 8.61182 8.25048 8.24193C8.33865 8.10376 8.41285 7.92893 8.4536 7.7634C8.50064 7.57222 8.49832 7.62126 8.50074 6.7698L8.50291 6.0034L7.75225 6.00335C7.29277 6.00331 6.97987 6.0008 6.94563 5.99688C6.82332 5.98287 6.73384 5.93901 6.64638 5.85024C6.56571 5.76835 6.52563 5.69272 6.50726 5.5877C6.49641 5.52569 6.49959 5.4256 6.51409 5.373C6.56066 5.204 6.6929 5.06941 6.86416 5.01672L6.91198 5.002L7.70718 5.00013L8.50238 4.99826V4.49937V4.00048L7.70398 3.99867L6.90558 3.99684L6.85758 3.98214C6.69432 3.93209 6.55939 3.7933 6.5143 3.629C6.50576 3.59789 6.50297 3.56479 6.50321 3.4978C6.50349 3.42139 6.50586 3.40055 6.51936 3.35624C6.56003 3.22263 6.66168 3.10589 6.78935 3.04614C6.88265 3.00248 6.8171 3.00566 7.69918 3.00196L8.49918 2.9986V2.7458C8.49918 2.57176 8.49653 2.47305 8.49067 2.429C8.44967 2.12075 8.32256 1.82648 8.12914 1.59202C7.87539 1.28441 7.53755 1.09053 7.12638 1.01654L7.04638 1.00215L6.02878 1.00139C5.4691 1.00098 4.99822 1.00173 4.98238 1.00306ZM0.916822 5.00511C0.724214 5.03561 0.551746 5.1988 0.51151 5.38859C0.497737 5.45357 0.4983 7.64731 0.512137 7.8306C0.586102 8.81032 0.958793 9.706 1.60265 10.4514C1.70577 10.5708 1.93233 10.7973 2.05118 10.8998C2.67578 11.4387 3.41717 11.792 4.21758 11.9322C4.51765 11.9847 4.64652 11.9942 5.11518 11.9983L5.50078 12.0016V13.5016V15.0015L4.69918 15.0033L3.89758 15.005L3.84851 15.0217C3.68352 15.0781 3.5622 15.2054 3.51568 15.3712C3.49636 15.44 3.49645 15.559 3.51588 15.6313C3.56528 15.8149 3.72838 15.9633 3.914 15.9934C3.9715 16.0027 8.02847 16.0027 8.08597 15.9934C8.27159 15.9633 8.43468 15.8149 8.48409 15.6313C8.50194 15.5649 8.5033 15.4406 8.48686 15.3794C8.44071 15.2077 8.31676 15.0765 8.14718 15.0199L8.10238 15.005L7.30238 15.0018L6.50238 14.9986L6.50077 13.5001L6.49916 12.0016L6.88477 11.9983C7.35358 11.9942 7.4827 11.9847 7.78238 11.9321C8.50596 11.8053 9.18429 11.5033 9.76958 11.0474C10.0414 10.8357 10.3329 10.544 10.548 10.2687C11.0479 9.62866 11.365 8.86552 11.4654 8.061C11.5001 7.7833 11.5002 7.7764 11.5005 6.5698C11.5007 5.66819 11.4991 5.44106 11.4923 5.405C11.4576 5.22061 11.311 5.06438 11.1253 5.01377C11.062 4.99652 10.933 4.99798 10.8675 5.01669C10.7214 5.0585 10.596 5.16844 10.5378 5.3058C10.5005 5.39384 10.5033 5.30349 10.4989 6.5666C10.4948 7.74518 10.4947 7.75284 10.47 7.9458C10.3899 8.57366 10.1409 9.1679 9.75111 9.661C9.31964 10.2069 8.74774 10.6086 8.09918 10.8214C7.81262 10.9154 7.57477 10.9632 7.25758 10.9904C7.11887 11.0023 4.88139 11.0023 4.74238 10.9904C4.49493 10.9692 4.26443 10.9292 4.06718 10.873C3.46844 10.7028 2.96252 10.4075 2.52981 9.97584C2.09761 9.5447 1.80021 9.03784 1.62907 8.4407C1.57579 8.25478 1.54148 8.06553 1.51266 7.7986C1.50723 7.74834 1.50397 7.39577 1.50127 6.5666L1.49749 5.405L1.48245 5.3602C1.42437 5.1872 1.29955 5.0642 1.13484 5.01766C1.08098 5.00244 0.972931 4.99622 0.916822 5.00511Z"/>
</mask>
<path fill-rule="evenodd" clip-rule="evenodd" d="M4.90878 0.00446604C4.41262 0.0492532 3.95257 0.223455 3.55838 0.515807C3.32247 0.690764 3.10771 0.916268 2.94272 1.16226C2.69664 1.52916 2.54615 1.95388 2.50588 2.39521C2.49635 2.49972 2.49628 7.49649 2.50582 7.60198C2.55511 8.14735 2.763 8.64559 3.11928 9.0722C3.23253 9.2078 3.42844 9.39026 3.57758 9.49902C3.91792 9.74722 4.31922 9.91228 4.73424 9.97479C4.91978 10.0027 4.94909 10.0034 5.99998 10.0034C7.05088 10.0034 7.08019 10.0027 7.26573 9.97479C8.4635 9.79439 9.38466 8.81358 9.49414 7.60207C9.50348 7.49874 9.50361 2.50694 9.49428 2.40152C9.47154 2.14465 9.41642 1.91087 9.31971 1.661C9.27655 1.54949 9.16434 1.32879 9.09746 1.22385C8.83831 0.817285 8.48828 0.49838 8.06359 0.281925C7.80085 0.148012 7.53811 0.065746 7.21968 0.017682C7.1307 0.00424844 7.11603 0.00406924 6.03198 0.00312204C5.4283 0.00259084 4.92286 0.00319884 4.90878 0.00446604ZM4.98238 1.00306C4.91877 1.00841 4.78895 1.03213 4.70974 1.0529C4.44018 1.12356 4.19885 1.26057 3.99439 1.45905C3.77872 1.66838 3.62309 1.9357 3.54894 2.2242C3.5046 2.39671 3.49555 2.50201 3.50125 2.7794L3.50582 3.0018H4.28604C5.15108 3.0018 5.10913 2.99987 5.20536 3.04397C5.33694 3.10427 5.43923 3.22031 5.48061 3.35624C5.4941 3.40055 5.49648 3.42139 5.49676 3.4978C5.49713 3.59911 5.48864 3.64091 5.45255 3.7154C5.392 3.84035 5.2779 3.93903 5.14567 3.9808L5.09438 3.997L4.29918 3.99874L3.50398 4.00048V4.49937V4.99826L4.29598 5.00013L5.08798 5.002L5.13484 5.01645C5.30579 5.06916 5.42896 5.19207 5.48249 5.3634C5.50369 5.43123 5.50389 5.56086 5.48291 5.63417C5.42631 5.83202 5.25926 5.9734 5.05434 5.99688C5.0201 6.0008 4.70835 6.00331 4.25118 6.00335L3.50398 6.0034L3.50238 6.629C3.50014 7.50717 3.50018 7.51108 3.51328 7.6002C3.61247 8.27478 4.11429 8.81741 4.77394 8.96339C4.93582 8.99921 4.91433 8.9986 5.99998 8.9986C7.08635 8.9986 7.06494 8.99922 7.22603 8.96323C7.64978 8.86857 8.01444 8.61182 8.25048 8.24193C8.33865 8.10376 8.41285 7.92893 8.4536 7.7634C8.50064 7.57222 8.49832 7.62126 8.50074 6.7698L8.50291 6.0034L7.75225 6.00335C7.29277 6.00331 6.97987 6.0008 6.94563 5.99688C6.82332 5.98287 6.73384 5.93901 6.64638 5.85024C6.56571 5.76835 6.52563 5.69272 6.50726 5.5877C6.49641 5.52569 6.49959 5.4256 6.51409 5.373C6.56066 5.204 6.6929 5.06941 6.86416 5.01672L6.91198 5.002L7.70718 5.00013L8.50238 4.99826V4.49937V4.00048L7.70398 3.99867L6.90558 3.99684L6.85758 3.98214C6.69432 3.93209 6.55939 3.7933 6.5143 3.629C6.50576 3.59789 6.50297 3.56479 6.50321 3.4978C6.50349 3.42139 6.50586 3.40055 6.51936 3.35624C6.56003 3.22263 6.66168 3.10589 6.78935 3.04614C6.88265 3.00248 6.8171 3.00566 7.69918 3.00196L8.49918 2.9986V2.7458C8.49918 2.57176 8.49653 2.47305 8.49067 2.429C8.44967 2.12075 8.32256 1.82648 8.12914 1.59202C7.87539 1.28441 7.53755 1.09053 7.12638 1.01654L7.04638 1.00215L6.02878 1.00139C5.4691 1.00098 4.99822 1.00173 4.98238 1.00306ZM0.916822 5.00511C0.724214 5.03561 0.551746 5.1988 0.51151 5.38859C0.497737 5.45357 0.4983 7.64731 0.512137 7.8306C0.586102 8.81032 0.958793 9.706 1.60265 10.4514C1.70577 10.5708 1.93233 10.7973 2.05118 10.8998C2.67578 11.4387 3.41717 11.792 4.21758 11.9322C4.51765 11.9847 4.64652 11.9942 5.11518 11.9983L5.50078 12.0016V13.5016V15.0015L4.69918 15.0033L3.89758 15.005L3.84851 15.0217C3.68352 15.0781 3.5622 15.2054 3.51568 15.3712C3.49636 15.44 3.49645 15.559 3.51588 15.6313C3.56528 15.8149 3.72838 15.9633 3.914 15.9934C3.9715 16.0027 8.02847 16.0027 8.08597 15.9934C8.27159 15.9633 8.43468 15.8149 8.48409 15.6313C8.50194 15.5649 8.5033 15.4406 8.48686 15.3794C8.44071 15.2077 8.31676 15.0765 8.14718 15.0199L8.10238 15.005L7.30238 15.0018L6.50238 14.9986L6.50077 13.5001L6.49916 12.0016L6.88477 11.9983C7.35358 11.9942 7.4827 11.9847 7.78238 11.9321C8.50596 11.8053 9.18429 11.5033 9.76958 11.0474C10.0414 10.8357 10.3329 10.544 10.548 10.2687C11.0479 9.62866 11.365 8.86552 11.4654 8.061C11.5001 7.7833 11.5002 7.7764 11.5005 6.5698C11.5007 5.66819 11.4991 5.44106 11.4923 5.405C11.4576 5.22061 11.311 5.06438 11.1253 5.01377C11.062 4.99652 10.933 4.99798 10.8675 5.01669C10.7214 5.0585 10.596 5.16844 10.5378 5.3058C10.5005 5.39384 10.5033 5.30349 10.4989 6.5666C10.4948 7.74518 10.4947 7.75284 10.47 7.9458C10.3899 8.57366 10.1409 9.1679 9.75111 9.661C9.31964 10.2069 8.74774 10.6086 8.09918 10.8214C7.81262 10.9154 7.57477 10.9632 7.25758 10.9904C7.11887 11.0023 4.88139 11.0023 4.74238 10.9904C4.49493 10.9692 4.26443 10.9292 4.06718 10.873C3.46844 10.7028 2.96252 10.4075 2.52981 9.97584C2.09761 9.5447 1.80021 9.03784 1.62907 8.4407C1.57579 8.25478 1.54148 8.06553 1.51266 7.7986C1.50723 7.74834 1.50397 7.39577 1.50127 6.5666L1.49749 5.405L1.48245 5.3602C1.42437 5.1872 1.29955 5.0642 1.13484 5.01766C1.08098 5.00244 0.972931 4.99622 0.916822 5.00511Z" fill="#CDD5DF" stroke="#CDD5DF" stroke-width="0.0128" mask="url(#path-1-inside-1_701_2558)"/>
</svg>
