<svg width="14" height="16" viewBox="0 0 14 16" fill="none" xmlns="http://www.w3.org/2000/svg">
<mask id="path-1-inside-1_701_2551" fill="white">
<path fill-rule="evenodd" clip-rule="evenodd" d="M6.74714 0.0193687C5.80215 0.0539671 4.88339 0.287855 4.02074 0.713423C3.1022 1.16656 2.27785 1.85041 1.64837 2.68145C0.897474 3.6728 0.432988 4.87078 0.322057 6.10225C0.299542 6.35213 0.29631 6.43034 0.296265 6.72625C0.296207 7.09834 0.309794 7.31388 0.353974 7.6414C0.50013 8.72496 0.925577 9.78537 1.56726 10.6654C1.70771 10.8581 1.87564 11.0651 2.01973 11.2233C2.15018 11.3664 2.25607 11.4178 2.42147 11.4179C2.54042 11.418 2.63092 11.3877 2.72406 11.3165C2.8659 11.208 2.93879 11.0348 2.91685 10.8583C2.90282 10.7454 2.86481 10.6684 2.76946 10.5598C2.52105 10.2768 2.3694 10.0795 2.20773 9.82911C1.63906 8.94822 1.32505 7.93552 1.29821 6.89585C1.27081 5.83438 1.51416 4.84393 2.02846 3.92368C2.4089 3.24293 2.96247 2.61682 3.61038 2.13445C4.19518 1.69907 4.87513 1.37642 5.59834 1.19113C6.21091 1.03418 6.88784 0.981333 7.53115 1.04024C8.68225 1.14565 9.76501 1.59339 10.6521 2.33082C11.1057 2.70782 11.5267 3.18472 11.831 3.66614C12.5393 4.78668 12.837 6.11237 12.6764 7.43025C12.5974 8.0788 12.3995 8.72645 12.1006 9.31505C11.8777 9.754 11.6322 10.1151 11.2912 10.5055C11.1788 10.6342 11.152 10.6719 11.1273 10.7355C11.1002 10.8057 11.0939 10.8504 11.0976 10.9455C11.1013 11.039 11.1118 11.0804 11.1511 11.1555C11.2146 11.2768 11.3503 11.3812 11.4793 11.4081C11.5706 11.4272 11.691 11.4192 11.7707 11.3889C11.8594 11.3551 11.9153 11.3113 12.0211 11.1923C12.587 10.5561 13.0118 9.84974 13.3039 9.05905C13.5332 8.43861 13.6587 7.84754 13.7085 7.15505C13.7209 6.98103 13.7189 6.44425 13.7051 6.26545C13.6708 5.82162 13.6157 5.47473 13.5177 5.08465C13.32 4.29751 12.9595 3.51281 12.4955 2.85922C11.8536 1.95521 11.0119 1.22839 10.0367 0.736169C9.01228 0.219049 7.90187 -0.0229097 6.74714 0.0193687ZM6.70234 2.30453C6.0742 2.34757 5.44767 2.53272 4.90074 2.83691C4.09539 3.28483 3.45506 3.97221 3.06914 4.80305C2.85311 5.26815 2.72981 5.73698 2.67866 6.28785C2.66592 6.42508 2.66796 6.87276 2.68195 7.01105C2.73962 7.58085 2.87283 8.05472 3.11195 8.54065C3.22826 8.77701 3.34122 8.96384 3.40663 9.02801C3.54086 9.1597 3.75469 9.20266 3.93328 9.13383C4.02593 9.09811 4.13522 9.00721 4.18316 8.92597C4.23224 8.8428 4.25793 8.73573 4.25253 8.63691C4.24698 8.53528 4.22614 8.47989 4.13941 8.33628C3.92063 7.97403 3.76995 7.55354 3.70465 7.12305C3.66994 6.89423 3.65866 6.58019 3.67754 6.36785C3.72933 5.78501 3.90872 5.26394 4.22007 4.79191C4.64583 4.14643 5.29505 3.66184 6.03034 3.44069C6.3677 3.33922 6.64087 3.29942 6.99995 3.29942C7.21049 3.29942 7.33794 3.3083 7.50555 3.33466C8.09957 3.42809 8.64534 3.67052 9.10234 4.04394C9.65826 4.49818 10.0484 5.10652 10.2254 5.79505C10.2989 6.08085 10.3306 6.33655 10.3302 6.63985C10.3297 7.08844 10.2449 7.50743 10.0703 7.92305C10.022 8.03818 9.92258 8.23425 9.86141 8.33509C9.77392 8.47931 9.75293 8.53485 9.74736 8.63691C9.74195 8.73573 9.76765 8.8428 9.81673 8.92597C9.86467 9.00721 9.97395 9.09811 10.0666 9.13383C10.1469 9.16478 10.2571 9.17481 10.3395 9.15868C10.466 9.13395 10.5862 9.05715 10.6537 8.95788C10.74 8.83118 10.9043 8.52149 10.9822 8.33905C11.1639 7.91338 11.2685 7.49985 11.3179 7.01105C11.332 6.87178 11.334 6.42446 11.3211 6.28785C11.2686 5.7317 11.1468 5.26825 10.9308 4.80305C10.5456 3.97353 9.90348 3.28426 9.09914 2.83691C8.54592 2.52921 7.92459 2.34694 7.28263 2.30401C7.16968 2.29646 6.81555 2.29678 6.70234 2.30453ZM6.88155 4.56325C5.92688 4.6126 5.11263 5.3089 4.91346 6.24625C4.87834 6.41152 4.87237 6.4753 4.87215 6.68785C4.87193 6.89882 4.87655 6.95383 4.90767 7.11025C5.05248 7.83815 5.56684 8.43962 6.26394 8.6962C6.37541 8.73722 6.46777 8.76295 6.58714 8.78623C6.74668 8.81733 6.80303 8.82225 6.99995 8.82225C7.19652 8.82225 7.25378 8.81728 7.4107 8.78655C7.59784 8.74991 7.75204 8.69841 7.92475 8.61486C8.15313 8.50438 8.33262 8.3768 8.51046 8.19856C8.79776 7.91061 8.99346 7.55466 9.08279 7.15763C9.11978 6.99319 9.1272 6.91758 9.12759 6.70065C9.12802 6.45702 9.11582 6.35202 9.064 6.15345C8.84629 5.31922 8.14778 4.69915 7.29012 4.57876C7.23311 4.57075 6.99714 4.55485 6.97754 4.55769C6.97402 4.5582 6.93082 4.56071 6.88155 4.56325ZM6.90394 5.56501C6.89514 5.5665 6.86346 5.57089 6.83354 5.57477C6.51085 5.61665 6.20738 5.81941 6.02854 6.11262C5.95786 6.2285 5.9025 6.38364 5.87925 6.53105C5.86861 6.59845 5.86862 6.78562 5.87925 6.85425C5.91767 7.10213 6.0286 7.32215 6.20101 7.49244C6.37895 7.6682 6.57897 7.76985 6.83034 7.81229C6.90728 7.82528 7.09261 7.82528 7.16955 7.81229C7.41294 7.7712 7.61044 7.67293 7.78302 7.50705C7.96816 7.3291 8.08407 7.10393 8.12072 6.85105C8.13143 6.77711 8.13135 6.60436 8.12057 6.53425C8.08208 6.28394 7.97445 6.06938 7.79976 5.89469C7.63018 5.72511 7.42153 5.61693 7.18657 5.57677C7.1331 5.56763 6.93673 5.55946 6.90394 5.56501ZM6.02074 9.11784C5.95371 9.12285 5.80725 9.14663 5.73594 9.16409C5.49054 9.22415 5.26573 9.33128 5.05754 9.48737C4.96823 9.55433 4.80333 9.71549 4.7329 9.80465C4.45534 10.156 4.31073 10.6063 4.33724 11.0366C4.34549 11.1706 4.7048 14.3757 4.72431 14.4894C4.78816 14.8616 4.96408 15.2001 5.2333 15.4687C5.51699 15.7518 5.8697 15.9292 6.26392 15.9871C6.34565 15.9991 6.38567 15.9998 7.00035 15.9998C7.74354 15.9999 7.73712 16.0002 7.94956 15.9449C8.55235 15.788 9.04883 15.3096 9.22978 14.7115C9.25434 14.6303 9.28055 14.5157 9.29081 14.4446C9.29463 14.4182 9.37148 13.6608 9.4616 12.7614C9.60496 11.3309 9.62586 11.1084 9.62867 10.9838C9.63292 10.7948 9.6188 10.6637 9.57619 10.4965C9.49329 10.1712 9.33344 9.89111 9.09324 9.65036C8.78819 9.34464 8.39475 9.15998 7.96314 9.11998C7.89922 9.11406 6.09791 9.11207 6.02074 9.11784ZM6.09279 10.1187C5.72535 10.1523 5.43115 10.4165 5.35154 10.7844C5.3459 10.8105 5.33982 10.8678 5.33805 10.9118C5.33506 10.9861 5.34807 11.11 5.51771 12.6238C5.6183 13.5214 5.70499 14.2823 5.71035 14.3147C5.73909 14.4881 5.82525 14.6483 5.95769 14.7745C6.05018 14.8626 6.14972 14.923 6.26782 14.9625C6.38974 15.0034 6.38389 15.003 6.94235 15.006C7.47423 15.0089 7.5672 15.0059 7.66706 14.9826C7.76626 14.9595 7.87412 14.9116 7.95355 14.8553C8.012 14.8139 8.10256 14.7255 8.14554 14.6678C8.21592 14.5735 8.27545 14.4356 8.29481 14.322C8.29982 14.2927 8.37836 13.5225 8.46933 12.6106L8.63475 10.9525L8.62708 10.8762C8.60917 10.6979 8.54796 10.5497 8.43602 10.4136C8.39186 10.3599 8.31968 10.2944 8.26075 10.2546C8.21532 10.2239 8.11799 10.1771 8.05707 10.1567C7.92974 10.114 7.98267 10.1162 7.02235 10.1147C6.54362 10.1139 6.12532 10.1158 6.09279 10.1187Z"/>
</mask>
<path fill-rule="evenodd" clip-rule="evenodd" d="M6.74714 0.0193687C5.80215 0.0539671 4.88339 0.287855 4.02074 0.713423C3.1022 1.16656 2.27785 1.85041 1.64837 2.68145C0.897474 3.6728 0.432988 4.87078 0.322057 6.10225C0.299542 6.35213 0.29631 6.43034 0.296265 6.72625C0.296207 7.09834 0.309794 7.31388 0.353974 7.6414C0.50013 8.72496 0.925577 9.78537 1.56726 10.6654C1.70771 10.8581 1.87564 11.0651 2.01973 11.2233C2.15018 11.3664 2.25607 11.4178 2.42147 11.4179C2.54042 11.418 2.63092 11.3877 2.72406 11.3165C2.8659 11.208 2.93879 11.0348 2.91685 10.8583C2.90282 10.7454 2.86481 10.6684 2.76946 10.5598C2.52105 10.2768 2.3694 10.0795 2.20773 9.82911C1.63906 8.94822 1.32505 7.93552 1.29821 6.89585C1.27081 5.83438 1.51416 4.84393 2.02846 3.92368C2.4089 3.24293 2.96247 2.61682 3.61038 2.13445C4.19518 1.69907 4.87513 1.37642 5.59834 1.19113C6.21091 1.03418 6.88784 0.981333 7.53115 1.04024C8.68225 1.14565 9.76501 1.59339 10.6521 2.33082C11.1057 2.70782 11.5267 3.18472 11.831 3.66614C12.5393 4.78668 12.837 6.11237 12.6764 7.43025C12.5974 8.0788 12.3995 8.72645 12.1006 9.31505C11.8777 9.754 11.6322 10.1151 11.2912 10.5055C11.1788 10.6342 11.152 10.6719 11.1273 10.7355C11.1002 10.8057 11.0939 10.8504 11.0976 10.9455C11.1013 11.039 11.1118 11.0804 11.1511 11.1555C11.2146 11.2768 11.3503 11.3812 11.4793 11.4081C11.5706 11.4272 11.691 11.4192 11.7707 11.3889C11.8594 11.3551 11.9153 11.3113 12.0211 11.1923C12.587 10.5561 13.0118 9.84974 13.3039 9.05905C13.5332 8.43861 13.6587 7.84754 13.7085 7.15505C13.7209 6.98103 13.7189 6.44425 13.7051 6.26545C13.6708 5.82162 13.6157 5.47473 13.5177 5.08465C13.32 4.29751 12.9595 3.51281 12.4955 2.85922C11.8536 1.95521 11.0119 1.22839 10.0367 0.736169C9.01228 0.219049 7.90187 -0.0229097 6.74714 0.0193687ZM6.70234 2.30453C6.0742 2.34757 5.44767 2.53272 4.90074 2.83691C4.09539 3.28483 3.45506 3.97221 3.06914 4.80305C2.85311 5.26815 2.72981 5.73698 2.67866 6.28785C2.66592 6.42508 2.66796 6.87276 2.68195 7.01105C2.73962 7.58085 2.87283 8.05472 3.11195 8.54065C3.22826 8.77701 3.34122 8.96384 3.40663 9.02801C3.54086 9.1597 3.75469 9.20266 3.93328 9.13383C4.02593 9.09811 4.13522 9.00721 4.18316 8.92597C4.23224 8.8428 4.25793 8.73573 4.25253 8.63691C4.24698 8.53528 4.22614 8.47989 4.13941 8.33628C3.92063 7.97403 3.76995 7.55354 3.70465 7.12305C3.66994 6.89423 3.65866 6.58019 3.67754 6.36785C3.72933 5.78501 3.90872 5.26394 4.22007 4.79191C4.64583 4.14643 5.29505 3.66184 6.03034 3.44069C6.3677 3.33922 6.64087 3.29942 6.99995 3.29942C7.21049 3.29942 7.33794 3.3083 7.50555 3.33466C8.09957 3.42809 8.64534 3.67052 9.10234 4.04394C9.65826 4.49818 10.0484 5.10652 10.2254 5.79505C10.2989 6.08085 10.3306 6.33655 10.3302 6.63985C10.3297 7.08844 10.2449 7.50743 10.0703 7.92305C10.022 8.03818 9.92258 8.23425 9.86141 8.33509C9.77392 8.47931 9.75293 8.53485 9.74736 8.63691C9.74195 8.73573 9.76765 8.8428 9.81673 8.92597C9.86467 9.00721 9.97395 9.09811 10.0666 9.13383C10.1469 9.16478 10.2571 9.17481 10.3395 9.15868C10.466 9.13395 10.5862 9.05715 10.6537 8.95788C10.74 8.83118 10.9043 8.52149 10.9822 8.33905C11.1639 7.91338 11.2685 7.49985 11.3179 7.01105C11.332 6.87178 11.334 6.42446 11.3211 6.28785C11.2686 5.7317 11.1468 5.26825 10.9308 4.80305C10.5456 3.97353 9.90348 3.28426 9.09914 2.83691C8.54592 2.52921 7.92459 2.34694 7.28263 2.30401C7.16968 2.29646 6.81555 2.29678 6.70234 2.30453ZM6.88155 4.56325C5.92688 4.6126 5.11263 5.3089 4.91346 6.24625C4.87834 6.41152 4.87237 6.4753 4.87215 6.68785C4.87193 6.89882 4.87655 6.95383 4.90767 7.11025C5.05248 7.83815 5.56684 8.43962 6.26394 8.6962C6.37541 8.73722 6.46777 8.76295 6.58714 8.78623C6.74668 8.81733 6.80303 8.82225 6.99995 8.82225C7.19652 8.82225 7.25378 8.81728 7.4107 8.78655C7.59784 8.74991 7.75204 8.69841 7.92475 8.61486C8.15313 8.50438 8.33262 8.3768 8.51046 8.19856C8.79776 7.91061 8.99346 7.55466 9.08279 7.15763C9.11978 6.99319 9.1272 6.91758 9.12759 6.70065C9.12802 6.45702 9.11582 6.35202 9.064 6.15345C8.84629 5.31922 8.14778 4.69915 7.29012 4.57876C7.23311 4.57075 6.99714 4.55485 6.97754 4.55769C6.97402 4.5582 6.93082 4.56071 6.88155 4.56325ZM6.90394 5.56501C6.89514 5.5665 6.86346 5.57089 6.83354 5.57477C6.51085 5.61665 6.20738 5.81941 6.02854 6.11262C5.95786 6.2285 5.9025 6.38364 5.87925 6.53105C5.86861 6.59845 5.86862 6.78562 5.87925 6.85425C5.91767 7.10213 6.0286 7.32215 6.20101 7.49244C6.37895 7.6682 6.57897 7.76985 6.83034 7.81229C6.90728 7.82528 7.09261 7.82528 7.16955 7.81229C7.41294 7.7712 7.61044 7.67293 7.78302 7.50705C7.96816 7.3291 8.08407 7.10393 8.12072 6.85105C8.13143 6.77711 8.13135 6.60436 8.12057 6.53425C8.08208 6.28394 7.97445 6.06938 7.79976 5.89469C7.63018 5.72511 7.42153 5.61693 7.18657 5.57677C7.1331 5.56763 6.93673 5.55946 6.90394 5.56501ZM6.02074 9.11784C5.95371 9.12285 5.80725 9.14663 5.73594 9.16409C5.49054 9.22415 5.26573 9.33128 5.05754 9.48737C4.96823 9.55433 4.80333 9.71549 4.7329 9.80465C4.45534 10.156 4.31073 10.6063 4.33724 11.0366C4.34549 11.1706 4.7048 14.3757 4.72431 14.4894C4.78816 14.8616 4.96408 15.2001 5.2333 15.4687C5.51699 15.7518 5.8697 15.9292 6.26392 15.9871C6.34565 15.9991 6.38567 15.9998 7.00035 15.9998C7.74354 15.9999 7.73712 16.0002 7.94956 15.9449C8.55235 15.788 9.04883 15.3096 9.22978 14.7115C9.25434 14.6303 9.28055 14.5157 9.29081 14.4446C9.29463 14.4182 9.37148 13.6608 9.4616 12.7614C9.60496 11.3309 9.62586 11.1084 9.62867 10.9838C9.63292 10.7948 9.6188 10.6637 9.57619 10.4965C9.49329 10.1712 9.33344 9.89111 9.09324 9.65036C8.78819 9.34464 8.39475 9.15998 7.96314 9.11998C7.89922 9.11406 6.09791 9.11207 6.02074 9.11784ZM6.09279 10.1187C5.72535 10.1523 5.43115 10.4165 5.35154 10.7844C5.3459 10.8105 5.33982 10.8678 5.33805 10.9118C5.33506 10.9861 5.34807 11.11 5.51771 12.6238C5.6183 13.5214 5.70499 14.2823 5.71035 14.3147C5.73909 14.4881 5.82525 14.6483 5.95769 14.7745C6.05018 14.8626 6.14972 14.923 6.26782 14.9625C6.38974 15.0034 6.38389 15.003 6.94235 15.006C7.47423 15.0089 7.5672 15.0059 7.66706 14.9826C7.76626 14.9595 7.87412 14.9116 7.95355 14.8553C8.012 14.8139 8.10256 14.7255 8.14554 14.6678C8.21592 14.5735 8.27545 14.4356 8.29481 14.322C8.29982 14.2927 8.37836 13.5225 8.46933 12.6106L8.63475 10.9525L8.62708 10.8762C8.60917 10.6979 8.54796 10.5497 8.43602 10.4136C8.39186 10.3599 8.31968 10.2944 8.26075 10.2546C8.21532 10.2239 8.11799 10.1771 8.05707 10.1567C7.92974 10.114 7.98267 10.1162 7.02235 10.1147C6.54362 10.1139 6.12532 10.1158 6.09279 10.1187Z" fill="#CDD5DF" stroke="#CDD5DF" stroke-width="0.0128" mask="url(#path-1-inside-1_701_2551)"/>
</svg>
