<svg width="16" height="12" viewBox="0 0 16 12" fill="none" xmlns="http://www.w3.org/2000/svg">
<path d="M0.5 5.83333H2.83333C3.0308 5.83339 3.22386 5.77498 3.38817 5.66548C3.55249 5.55597 3.68071 5.40027 3.75667 5.218L5.49 1.14133C5.52959 1.04819 5.59651 0.96925 5.68193 0.914954C5.76734 0.860658 5.86722 0.833561 5.96836 0.837246C6.06951 0.84093 6.16715 0.875222 6.24839 0.935589C6.32962 0.995956 6.39063 1.07955 6.42333 1.17533L9.57933 10.992C9.61204 11.0878 9.67304 11.1714 9.75428 11.2317C9.83552 11.2921 9.93316 11.3264 10.0343 11.3301C10.1354 11.3338 10.2353 11.3067 10.3207 11.2524C10.4062 11.1981 10.4731 11.1191 10.5127 11.026L12.2427 6.44867C12.3186 6.2664 12.4468 6.1107 12.6112 6.00119C12.7755 5.89169 12.9685 5.83328 13.166 5.83333H15.4993" stroke="#0D121C" stroke-linecap="round" stroke-linejoin="round"/>
</svg>
