<svg width="16" height="16" viewBox="0 0 16 16" fill="none" xmlns="http://www.w3.org/2000/svg">
<mask id="path-1-inside-1_649_3947" fill="white">
<path fill-rule="evenodd" clip-rule="evenodd" d="M5.58086 0.198984C5.02202 0.246383 4.51777 0.419298 4.06087 0.720226C3.382 1.16734 2.89421 1.85775 2.70135 2.64449C2.639 2.89884 2.61127 3.13589 2.61127 3.41447C2.61127 3.83838 2.68019 4.20444 2.8336 4.59527C3.21703 5.57213 4.06836 6.30938 5.09127 6.55038C5.60824 6.67219 6.18741 6.66142 6.68807 6.52069C7.22722 6.36914 7.69549 6.09848 8.09184 5.70932C8.5715 5.23835 8.8921 4.62848 9.00718 3.96807C9.08926 3.49706 9.06312 2.98558 8.93393 2.53472C8.78031 1.99862 8.50451 1.52924 8.11206 1.13598C7.56366 0.58644 6.85113 0.258767 6.07399 0.198716C5.97571 0.191125 5.67159 0.191285 5.58086 0.198984ZM5.69927 1.19423C5.68518 1.19561 5.64198 1.19977 5.60327 1.20346C5.21486 1.24044 4.81393 1.39772 4.49751 1.63722C4.13629 1.91061 3.86831 2.28192 3.72753 2.70407C3.67434 2.86355 3.65051 2.96698 3.62762 3.1376C3.60896 3.27674 3.60751 3.52879 3.62458 3.66727C3.68648 4.16931 3.89439 4.60465 4.24312 4.96245C4.62018 5.34931 5.09923 5.57617 5.64487 5.6263C5.73602 5.63468 6.02314 5.63034 6.09927 5.61944C6.37685 5.57969 6.60636 5.51003 6.83166 5.39713C7.24806 5.18847 7.60623 4.83102 7.81423 4.41653C7.91047 4.22475 7.98298 4.00768 8.01888 3.80385C8.04478 3.65678 8.0479 3.61507 8.04798 3.41447C8.04807 3.21305 8.04519 3.17443 8.01861 3.02087C7.9576 2.66836 7.79653 2.31298 7.56755 2.02567C7.49554 1.93531 7.30673 1.74675 7.21606 1.67465C6.89267 1.41744 6.51448 1.25973 6.09286 1.20626C6.01759 1.19671 5.75535 1.18869 5.69927 1.19423ZM14.1057 7.2033C14.0197 7.21386 13.9454 7.22809 13.8689 7.24864C13.8354 7.25761 13.1298 7.45333 12.3009 7.68357C11.3331 7.95235 10.768 8.11227 10.722 8.13037C10.4067 8.25449 10.1432 8.48983 9.97659 8.79623C9.90311 8.93136 9.84618 9.09223 9.81783 9.24487C9.79202 9.38379 9.79218 9.37334 9.79212 10.9528C9.79207 12.3936 9.79151 12.4686 9.78086 12.4652C9.7747 12.4633 9.73447 12.4471 9.69146 12.4292C9.55852 12.3739 9.39194 12.3318 9.23207 12.313C9.13283 12.3014 8.918 12.3031 8.81927 12.3163C8.55694 12.3514 8.31649 12.4375 8.1035 12.5725C7.34317 13.0546 7.06959 14.0239 7.46574 14.8321C7.546 14.9958 7.64588 15.1377 7.77598 15.2726C8.06097 15.5683 8.42874 15.7508 8.83549 15.7984C8.9307 15.8095 9.12004 15.8111 9.21699 15.8015C9.61321 15.7626 9.99407 15.5815 10.279 15.2966C10.5261 15.0495 10.6986 14.7244 10.7615 14.3873C10.7918 14.2253 10.7906 14.3248 10.7906 11.8497C10.7905 10.2923 10.7927 9.50755 10.7971 9.46906C10.8053 9.398 10.8177 9.35384 10.8457 9.29607C10.8926 9.19946 10.9676 9.12181 11.0561 9.07825C11.1226 9.0455 14.1401 8.20816 14.2261 8.19856C14.3007 8.19024 14.3668 8.19796 14.4386 8.22335C14.5129 8.24965 14.5562 8.27813 14.6246 8.34567C14.6938 8.41399 14.7258 8.46457 14.7519 8.54718L14.7681 8.59847L14.7698 9.78109L14.7715 10.9637L14.7522 10.9537C14.7144 10.9342 14.5764 10.8853 14.4992 10.8642C14.2163 10.7866 13.8886 10.7842 13.6041 10.8574C13.1031 10.9865 12.6895 11.3232 12.464 11.7857C12.3307 12.0591 12.274 12.3393 12.2889 12.6513C12.3269 13.4444 12.9079 14.1184 13.6888 14.2752C13.8217 14.3018 13.8784 14.3069 14.0417 14.3069C14.1581 14.3068 14.2182 14.3039 14.2753 14.2954C14.6396 14.2417 14.9523 14.0951 15.2225 13.8513C15.4542 13.6421 15.6365 13.3483 15.7244 13.0424C15.7779 12.856 15.801 12.6452 15.7875 12.4673C15.7834 12.4129 15.7792 11.674 15.7764 10.4769C15.7715 8.45426 15.773 8.54192 15.7402 8.37767C15.636 7.85592 15.219 7.40537 14.7009 7.25473C14.6026 7.22618 14.5134 7.208 14.433 7.20014C14.3451 7.19155 14.1891 7.19306 14.1057 7.2033ZM5.64807 7.33237C5.54337 7.33539 5.3683 7.34757 5.24166 7.36063C3.69192 7.52046 2.23614 8.33261 1.24464 9.59047C0.80452 10.1488 0.479317 10.7556 0.260187 11.4275C0.200865 11.6093 0.194069 11.6792 0.224552 11.7939C0.304891 12.096 0.639291 12.2517 0.921096 12.1182C1.03738 12.0631 1.12136 11.9777 1.16661 11.8685C1.1753 11.8476 1.19612 11.7887 1.21289 11.7377C1.42349 11.0968 1.72751 10.5598 2.17851 10.0321C2.27612 9.91784 2.56822 9.62574 2.68487 9.5257C3.41489 8.89955 4.25559 8.51117 5.16807 8.37852C5.52903 8.32604 5.94487 8.31767 6.31046 8.35552C6.8915 8.41568 7.42944 8.57573 7.98727 8.85441C8.05942 8.89047 8.13528 8.92482 8.15584 8.93076C8.34659 8.98586 8.56343 8.91794 8.68257 8.76576C8.75537 8.67277 8.7937 8.56443 8.79362 8.45184C8.7935 8.28108 8.71402 8.12862 8.57681 8.03595C8.50268 7.98588 8.1876 7.83489 7.98727 7.75343C7.23832 7.44888 6.46049 7.30887 5.64807 7.33237ZM13.9688 11.8084C13.7879 11.8248 13.619 11.9075 13.4913 12.0422C13.3933 12.1455 13.3327 12.2627 13.3013 12.4097C13.2853 12.4845 13.2854 12.6294 13.3013 12.7038C13.3581 12.9677 13.5312 13.1694 13.7818 13.2636C13.9337 13.3207 14.1428 13.3209 14.2938 13.2641C14.4698 13.1978 14.615 13.0731 14.6999 12.9153C14.7542 12.8144 14.7875 12.6949 14.7775 12.6369C14.7745 12.6193 14.7719 12.5534 14.7716 12.4904C14.7713 12.3797 14.7706 12.3741 14.7514 12.3176C14.6831 12.1173 14.5367 11.9563 14.344 11.8699C14.2802 11.8413 14.1922 11.817 14.1332 11.8116C14.0458 11.8037 14.0246 11.8033 13.9688 11.8084ZM8.90567 13.3159C8.80472 13.3348 8.70278 13.3769 8.60904 13.4383C8.55761 13.472 8.4499 13.5819 8.4131 13.6383C8.32252 13.7771 8.28295 13.9218 8.28999 14.0886C8.29434 14.1918 8.30618 14.2483 8.3422 14.3377C8.49326 14.7124 8.90633 14.8979 9.29231 14.7643C9.49544 14.694 9.66675 14.5251 9.74279 14.3201C9.84362 14.0482 9.77922 13.7388 9.57936 13.5349C9.47511 13.4286 9.35662 13.3612 9.20967 13.3245C9.13708 13.3065 8.97969 13.302 8.90567 13.3159Z"/>
</mask>
<path fill-rule="evenodd" clip-rule="evenodd" d="M5.58086 0.198984C5.02202 0.246383 4.51777 0.419298 4.06087 0.720226C3.382 1.16734 2.89421 1.85775 2.70135 2.64449C2.639 2.89884 2.61127 3.13589 2.61127 3.41447C2.61127 3.83838 2.68019 4.20444 2.8336 4.59527C3.21703 5.57213 4.06836 6.30938 5.09127 6.55038C5.60824 6.67219 6.18741 6.66142 6.68807 6.52069C7.22722 6.36914 7.69549 6.09848 8.09184 5.70932C8.5715 5.23835 8.8921 4.62848 9.00718 3.96807C9.08926 3.49706 9.06312 2.98558 8.93393 2.53472C8.78031 1.99862 8.50451 1.52924 8.11206 1.13598C7.56366 0.58644 6.85113 0.258767 6.07399 0.198716C5.97571 0.191125 5.67159 0.191285 5.58086 0.198984ZM5.69927 1.19423C5.68518 1.19561 5.64198 1.19977 5.60327 1.20346C5.21486 1.24044 4.81393 1.39772 4.49751 1.63722C4.13629 1.91061 3.86831 2.28192 3.72753 2.70407C3.67434 2.86355 3.65051 2.96698 3.62762 3.1376C3.60896 3.27674 3.60751 3.52879 3.62458 3.66727C3.68648 4.16931 3.89439 4.60465 4.24312 4.96245C4.62018 5.34931 5.09923 5.57617 5.64487 5.6263C5.73602 5.63468 6.02314 5.63034 6.09927 5.61944C6.37685 5.57969 6.60636 5.51003 6.83166 5.39713C7.24806 5.18847 7.60623 4.83102 7.81423 4.41653C7.91047 4.22475 7.98298 4.00768 8.01888 3.80385C8.04478 3.65678 8.0479 3.61507 8.04798 3.41447C8.04807 3.21305 8.04519 3.17443 8.01861 3.02087C7.9576 2.66836 7.79653 2.31298 7.56755 2.02567C7.49554 1.93531 7.30673 1.74675 7.21606 1.67465C6.89267 1.41744 6.51448 1.25973 6.09286 1.20626C6.01759 1.19671 5.75535 1.18869 5.69927 1.19423ZM14.1057 7.2033C14.0197 7.21386 13.9454 7.22809 13.8689 7.24864C13.8354 7.25761 13.1298 7.45333 12.3009 7.68357C11.3331 7.95235 10.768 8.11227 10.722 8.13037C10.4067 8.25449 10.1432 8.48983 9.97659 8.79623C9.90311 8.93136 9.84618 9.09223 9.81783 9.24487C9.79202 9.38379 9.79218 9.37334 9.79212 10.9528C9.79207 12.3936 9.79151 12.4686 9.78086 12.4652C9.7747 12.4633 9.73447 12.4471 9.69146 12.4292C9.55852 12.3739 9.39194 12.3318 9.23207 12.313C9.13283 12.3014 8.918 12.3031 8.81927 12.3163C8.55694 12.3514 8.31649 12.4375 8.1035 12.5725C7.34317 13.0546 7.06959 14.0239 7.46574 14.8321C7.546 14.9958 7.64588 15.1377 7.77598 15.2726C8.06097 15.5683 8.42874 15.7508 8.83549 15.7984C8.9307 15.8095 9.12004 15.8111 9.21699 15.8015C9.61321 15.7626 9.99407 15.5815 10.279 15.2966C10.5261 15.0495 10.6986 14.7244 10.7615 14.3873C10.7918 14.2253 10.7906 14.3248 10.7906 11.8497C10.7905 10.2923 10.7927 9.50755 10.7971 9.46906C10.8053 9.398 10.8177 9.35384 10.8457 9.29607C10.8926 9.19946 10.9676 9.12181 11.0561 9.07825C11.1226 9.0455 14.1401 8.20816 14.2261 8.19856C14.3007 8.19024 14.3668 8.19796 14.4386 8.22335C14.5129 8.24965 14.5562 8.27813 14.6246 8.34567C14.6938 8.41399 14.7258 8.46457 14.7519 8.54718L14.7681 8.59847L14.7698 9.78109L14.7715 10.9637L14.7522 10.9537C14.7144 10.9342 14.5764 10.8853 14.4992 10.8642C14.2163 10.7866 13.8886 10.7842 13.6041 10.8574C13.1031 10.9865 12.6895 11.3232 12.464 11.7857C12.3307 12.0591 12.274 12.3393 12.2889 12.6513C12.3269 13.4444 12.9079 14.1184 13.6888 14.2752C13.8217 14.3018 13.8784 14.3069 14.0417 14.3069C14.1581 14.3068 14.2182 14.3039 14.2753 14.2954C14.6396 14.2417 14.9523 14.0951 15.2225 13.8513C15.4542 13.6421 15.6365 13.3483 15.7244 13.0424C15.7779 12.856 15.801 12.6452 15.7875 12.4673C15.7834 12.4129 15.7792 11.674 15.7764 10.4769C15.7715 8.45426 15.773 8.54192 15.7402 8.37767C15.636 7.85592 15.219 7.40537 14.7009 7.25473C14.6026 7.22618 14.5134 7.208 14.433 7.20014C14.3451 7.19155 14.1891 7.19306 14.1057 7.2033ZM5.64807 7.33237C5.54337 7.33539 5.3683 7.34757 5.24166 7.36063C3.69192 7.52046 2.23614 8.33261 1.24464 9.59047C0.80452 10.1488 0.479317 10.7556 0.260187 11.4275C0.200865 11.6093 0.194069 11.6792 0.224552 11.7939C0.304891 12.096 0.639291 12.2517 0.921096 12.1182C1.03738 12.0631 1.12136 11.9777 1.16661 11.8685C1.1753 11.8476 1.19612 11.7887 1.21289 11.7377C1.42349 11.0968 1.72751 10.5598 2.17851 10.0321C2.27612 9.91784 2.56822 9.62574 2.68487 9.5257C3.41489 8.89955 4.25559 8.51117 5.16807 8.37852C5.52903 8.32604 5.94487 8.31767 6.31046 8.35552C6.8915 8.41568 7.42944 8.57573 7.98727 8.85441C8.05942 8.89047 8.13528 8.92482 8.15584 8.93076C8.34659 8.98586 8.56343 8.91794 8.68257 8.76576C8.75537 8.67277 8.7937 8.56443 8.79362 8.45184C8.7935 8.28108 8.71402 8.12862 8.57681 8.03595C8.50268 7.98588 8.1876 7.83489 7.98727 7.75343C7.23832 7.44888 6.46049 7.30887 5.64807 7.33237ZM13.9688 11.8084C13.7879 11.8248 13.619 11.9075 13.4913 12.0422C13.3933 12.1455 13.3327 12.2627 13.3013 12.4097C13.2853 12.4845 13.2854 12.6294 13.3013 12.7038C13.3581 12.9677 13.5312 13.1694 13.7818 13.2636C13.9337 13.3207 14.1428 13.3209 14.2938 13.2641C14.4698 13.1978 14.615 13.0731 14.6999 12.9153C14.7542 12.8144 14.7875 12.6949 14.7775 12.6369C14.7745 12.6193 14.7719 12.5534 14.7716 12.4904C14.7713 12.3797 14.7706 12.3741 14.7514 12.3176C14.6831 12.1173 14.5367 11.9563 14.344 11.8699C14.2802 11.8413 14.1922 11.817 14.1332 11.8116C14.0458 11.8037 14.0246 11.8033 13.9688 11.8084ZM8.90567 13.3159C8.80472 13.3348 8.70278 13.3769 8.60904 13.4383C8.55761 13.472 8.4499 13.5819 8.4131 13.6383C8.32252 13.7771 8.28295 13.9218 8.28999 14.0886C8.29434 14.1918 8.30618 14.2483 8.3422 14.3377C8.49326 14.7124 8.90633 14.8979 9.29231 14.7643C9.49544 14.694 9.66675 14.5251 9.74279 14.3201C9.84362 14.0482 9.77922 13.7388 9.57936 13.5349C9.47511 13.4286 9.35662 13.3612 9.20967 13.3245C9.13708 13.3065 8.97969 13.302 8.90567 13.3159Z" fill="#4B5565" stroke="#4B5565" stroke-width="0.0128" mask="url(#path-1-inside-1_649_3947)"/>
</svg>
