<svg width="118" height="18" viewBox="0 0 118 18" fill="none" xmlns="http://www.w3.org/2000/svg">
<path d="M8.77135 12.115L8.79198 12.2181C10.0916 12.1769 11.3705 12.1769 12.5669 12.1769C15.2486 12.1769 16.6925 12.1356 18.0746 12.0944C18.0127 12.7751 18.0127 13.889 18.0127 14.5285C18.0127 15.2092 18.0334 15.8899 18.0746 16.7357H0.190063C0.23132 15.9518 0.23132 15.2505 0.23132 14.5904C0.23132 13.7446 0.23132 12.7132 0.210692 12.2594C1.9022 11.3518 4.60448 9.28894 7.18299 7.43242C8.07 6.79294 8.99826 6.27724 9.86464 5.84405L9.82339 5.72028C8.62696 5.78217 7.38927 5.80279 6.02782 5.80279C3.03674 5.80279 1.63403 5.82342 0.251948 5.84405C0.272576 5.18395 0.293204 4.11129 0.293204 3.51308C0.293204 2.8736 0.293204 2.02785 0.251948 1.26461H18.0334C18.0127 2.00722 17.9921 2.66732 17.9921 3.32742C17.9921 4.04941 17.9921 5.30772 18.0334 5.90594C16.5069 6.75169 14.3203 8.46382 11.8656 10.341C10.7104 11.1455 9.72025 11.6612 8.77135 12.115Z" fill="#EEF2F6"/>
<path d="M42.701 1.26461H48.3737C47.1567 4.93641 44.64 14.4047 44.0418 16.7357C43.0929 16.7151 41.7521 16.6944 40.2256 16.6944C38.2041 16.6944 36.6569 16.7151 36.0794 16.7357C35.8112 15.4774 35.1924 12.7338 34.656 10.1141C34.4497 8.97952 34.2435 7.70058 34.0784 6.54541H33.9134C33.7278 7.72121 33.5008 9.06204 33.2533 10.176C32.6757 12.6101 32.0156 15.333 31.6856 16.7357C30.9842 16.7357 29.5403 16.6944 28.2613 16.6944C26.1985 16.6944 24.9814 16.7151 24.342 16.7357C23.5994 14.0334 21.289 4.95704 19.9688 1.26461H26.9617C27.0855 2.3579 27.8487 6.66917 28.447 9.51585C28.6326 10.4441 28.7976 11.3518 28.9627 12.0944H29.0864C29.2515 11.3311 29.4577 10.4235 29.664 9.4746C30.2416 6.62792 31.0667 2.77046 31.2318 1.26461C32.0569 1.28524 34.0372 1.30587 35.1098 1.30587C36.1 1.30587 37.7296 1.28524 38.4928 1.26461C38.6785 2.6467 39.318 6.62792 39.9987 9.55711C40.2669 10.5679 40.4319 11.4549 40.5763 12.1769H40.7001C40.8238 11.4343 40.9682 10.5679 41.1951 9.55711C41.7727 6.62792 42.4947 2.77046 42.701 1.26461Z" fill="#EEF2F6"/>
<path d="M70.6931 8.77324C70.6931 14.2397 67.537 17.1483 59.9459 17.1483C52.3753 17.1483 49.343 14.2397 49.343 8.77324C49.343 3.26554 52.7673 0.852051 59.9665 0.852051C67.1657 0.852051 70.6931 3.26554 70.6931 8.77324ZM59.9665 12.6307C62.8338 12.6307 63.9683 11.3724 63.9683 8.8145C63.9683 6.27724 62.8132 5.1427 59.9665 5.1427C57.1404 5.1427 55.9646 6.25661 55.9646 8.8145C55.9646 11.393 57.1198 12.6307 59.9665 12.6307Z" fill="#EEF2F6"/>
<path d="M94.4487 8.77324C94.4487 14.2397 91.2926 17.1483 83.7015 17.1483C76.131 17.1483 73.0986 14.2397 73.0986 8.77324C73.0986 3.26554 76.5229 0.852051 83.7221 0.852051C90.9213 0.852051 94.4487 3.26554 94.4487 8.77324ZM83.7221 12.6307C86.5894 12.6307 87.724 11.3724 87.724 8.8145C87.724 6.27724 86.5688 5.1427 83.7221 5.1427C80.896 5.1427 79.7203 6.25661 79.7203 8.8145C79.7203 11.393 80.8754 12.6307 83.7221 12.6307Z" fill="#EEF2F6"/>
<path d="M109.644 1.26461H117.379C115.585 3.45119 112.532 7.59744 110.077 9.12392C111.459 9.63962 112.532 10.5885 113.481 11.8468C115.956 14.6523 117.029 16.0756 117.627 16.7357H110.531C109.644 16.7357 109.252 16.55 108.901 16.0137C107.622 14.4253 105.827 12.0531 104.342 10.8567H104.157C104.157 13.0226 104.177 14.9204 104.26 16.7357H97.6175C97.7 14.3841 97.7206 12.28 97.7206 9.00015C97.7206 5.72028 97.7 3.57496 97.6175 1.26461H104.26C104.157 3.36868 104.157 5.69966 104.157 8.27817H104.301C105.044 7.43242 105.827 6.58666 106.508 5.76154C108.097 3.80187 108.963 2.3579 109.644 1.26461Z" fill="#EEF2F6"/>
</svg>
