<svg width="52" height="52" viewBox="0 0 52 52" fill="none" xmlns="http://www.w3.org/2000/svg">
<path fill-rule="evenodd" clip-rule="evenodd" d="M26 52C40.3594 52 52 40.3594 52 26C52 11.6406 40.3594 0 26 0C11.6406 0 0 11.6406 0 26C0 40.3594 11.6406 52 26 52ZM26 46.4649C37.3025 46.4649 46.465 37.3024 46.465 25.9999C46.465 14.6974 37.3025 5.53495 26 5.53495C14.6975 5.53495 5.53501 14.6974 5.53501 25.9999C5.53501 37.3024 14.6975 46.4649 26 46.4649Z" fill="url(#paint0_angular_604_773)"/>
<g filter="url(#filter0_i_604_773)">
<path fill-rule="evenodd" clip-rule="evenodd" d="M25.9999 46.4649C37.3024 46.4649 46.4649 37.3024 46.4649 25.9999C46.4649 14.6974 37.3024 5.53491 25.9999 5.53491C14.6974 5.53491 5.53491 14.6974 5.53491 25.9999C5.53491 37.3024 14.6974 46.4649 25.9999 46.4649ZM25.9999 37.1426C32.1539 37.1426 37.1428 32.1538 37.1428 25.9997C37.1428 19.8457 32.1539 14.8569 25.9999 14.8569C19.8459 14.8569 14.8571 19.8457 14.8571 25.9997C14.8571 32.1538 19.8459 37.1426 25.9999 37.1426Z" fill="url(#paint1_angular_604_773)"/>
</g>
<defs>
<filter id="filter0_i_604_773" x="5.53491" y="5.53491" width="40.9299" height="40.9299" filterUnits="userSpaceOnUse" color-interpolation-filters="sRGB">
<feFlood flood-opacity="0" result="BackgroundImageFix"/>
<feBlend mode="normal" in="SourceGraphic" in2="BackgroundImageFix" result="shape"/>
<feColorMatrix in="SourceAlpha" type="matrix" values="0 0 0 0 0 0 0 0 0 0 0 0 0 0 0 0 0 0 127 0" result="hardAlpha"/>
<feOffset/>
<feGaussianBlur stdDeviation="2.03922"/>
<feComposite in2="hardAlpha" operator="arithmetic" k2="-1" k3="1"/>
<feColorMatrix type="matrix" values="0 0 0 0 0.278667 0 0 0 0 0 0 0 0 0 0.633333 0 0 0 1 0"/>
<feBlend mode="normal" in2="shape" result="effect1_innerShadow_604_773"/>
</filter>
<radialGradient id="paint0_angular_604_773" cx="0" cy="0" r="1" gradientUnits="userSpaceOnUse" gradientTransform="translate(26.9253 24.9822) rotate(115.362) scale(31.5379 39.2254)">
<stop stop-color="#FF61A8"/>
<stop offset="0.411458" stop-color="#6957FF"/>
<stop offset="0.59956" stop-color="#FFC83A"/>
<stop offset="0.755208" stop-color="#7F3FFF"/>
<stop offset="0.932292" stop-color="#FC00E3"/>
</radialGradient>
<radialGradient id="paint1_angular_604_773" cx="0" cy="0" r="1" gradientUnits="userSpaceOnUse" gradientTransform="translate(26.7282 25.1988) rotate(115.362) scale(24.8239 30.8749)">
<stop stop-color="#FF61A8"/>
<stop offset="0.411458" stop-color="#6957FF"/>
<stop offset="0.59956" stop-color="#FFC83A"/>
<stop offset="0.755208" stop-color="#7F3FFF"/>
<stop offset="0.932292" stop-color="#FC00E3"/>
</radialGradient>
</defs>
</svg>
