<svg width="12" height="16" viewBox="0 0 12 16" fill="none" xmlns="http://www.w3.org/2000/svg">
<mask id="path-1-inside-1_649_3936" fill="white">
<path fill-rule="evenodd" clip-rule="evenodd" d="M4.90878 0.0042219C4.41262 0.0490091 3.95257 0.223211 3.55838 0.515563C3.32247 0.690519 3.10771 0.916024 2.94272 1.16201C2.69664 1.52891 2.54615 1.95364 2.50588 2.39496C2.49635 2.49948 2.49628 7.49624 2.50582 7.60174C2.55511 8.1471 2.763 8.64535 3.11928 9.07195C3.23253 9.20756 3.42844 9.39001 3.57758 9.49878C3.91792 9.74697 4.31922 9.91204 4.73424 9.97454C4.91978 10.0025 4.94909 10.0032 5.99998 10.0032C7.05088 10.0032 7.08019 10.0025 7.26573 9.97454C8.4635 9.79415 9.38466 8.81333 9.49414 7.60183C9.50348 7.49849 9.50361 2.5067 9.49428 2.40128C9.47154 2.14441 9.41642 1.91063 9.31971 1.66075C9.27655 1.54925 9.16434 1.32854 9.09746 1.22361C8.83831 0.817041 8.48828 0.498135 8.06359 0.281681C7.80085 0.147767 7.53811 0.0655019 7.21968 0.0174379C7.1307 0.0040043 7.11603 0.0038251 6.03198 0.0028779C5.4283 0.0023467 4.92286 0.0029547 4.90878 0.0042219ZM4.98238 1.00282C4.91877 1.00816 4.78895 1.03189 4.70974 1.05266C4.44018 1.12331 4.19885 1.26033 3.99439 1.4588C3.77872 1.66814 3.62309 1.93546 3.54894 2.22395C3.5046 2.39647 3.49555 2.50176 3.50125 2.77915L3.50582 3.00155H4.28604C5.15108 3.00155 5.10913 2.99963 5.20536 3.04373C5.33694 3.10402 5.43923 3.22007 5.48061 3.356C5.4941 3.40031 5.49648 3.42114 5.49676 3.49755C5.49713 3.59887 5.48864 3.64066 5.45255 3.71515C5.392 3.84011 5.2779 3.93878 5.14567 3.98055L5.09438 3.99675L4.29918 3.9985L3.50398 4.00024V4.49913V4.99801L4.29598 4.99989L5.08798 5.00176L5.13484 5.0162C5.30579 5.06891 5.42896 5.19182 5.48249 5.36315C5.50369 5.43099 5.50389 5.56061 5.48291 5.63393C5.42631 5.83178 5.25926 5.97316 5.05434 5.99664C5.0201 6.00056 4.70835 6.00307 4.25118 6.0031L3.50398 6.00315L3.50238 6.62875C3.50014 7.50693 3.50018 7.51083 3.51328 7.59995C3.61247 8.27453 4.11429 8.81717 4.77394 8.96315C4.93582 8.99897 4.91433 8.99835 5.99998 8.99835C7.08635 8.99835 7.06494 8.99897 7.22603 8.96299C7.64978 8.86833 8.01444 8.61158 8.25048 8.24168C8.33865 8.10352 8.41285 7.92868 8.4536 7.76315C8.50064 7.57198 8.49832 7.62102 8.50074 6.76955L8.50291 6.00315L7.75225 6.0031C7.29277 6.00307 6.97987 6.00056 6.94563 5.99664C6.82332 5.98262 6.73384 5.93877 6.64638 5.84999C6.56571 5.76811 6.52563 5.69248 6.50726 5.58746C6.49641 5.52544 6.49959 5.42535 6.51409 5.37275C6.56066 5.20375 6.6929 5.06917 6.86416 5.01647L6.91198 5.00176L7.70718 4.99989L8.50238 4.99801V4.49913V4.00024L7.70398 3.99842L6.90558 3.9966L6.85758 3.98189C6.69432 3.93185 6.55939 3.79305 6.5143 3.62875C6.50576 3.59765 6.50297 3.56455 6.50321 3.49755C6.50349 3.42114 6.50586 3.40031 6.51936 3.356C6.56003 3.22239 6.66168 3.10564 6.78935 3.0459C6.88265 3.00224 6.8171 3.00542 7.69918 3.00171L8.49918 2.99835V2.74555C8.49918 2.57152 8.49653 2.47281 8.49067 2.42875C8.44967 2.12051 8.32256 1.82624 8.12914 1.59177C7.87539 1.28417 7.53755 1.09028 7.12638 1.0163L7.04638 1.00191L6.02878 1.00115C5.4691 1.00074 4.99822 1.00149 4.98238 1.00282ZM0.916822 5.00486C0.724214 5.03537 0.551746 5.19856 0.51151 5.38835C0.497737 5.45332 0.4983 7.64707 0.512137 7.83035C0.586102 8.81007 0.958793 9.70576 1.60265 10.4512C1.70577 10.5705 1.93233 10.7971 2.05118 10.8996C2.67578 11.4385 3.41717 11.7918 4.21758 11.9319C4.51765 11.9845 4.64652 11.9939 5.11518 11.998L5.50078 12.0014V13.5013V15.0013L4.69918 15.003L3.89758 15.0048L3.84851 15.0215C3.68352 15.0778 3.5622 15.2052 3.51568 15.3709C3.49636 15.4398 3.49645 15.5588 3.51588 15.631C3.56528 15.8147 3.72838 15.9631 3.914 15.9932C3.9715 16.0025 8.02847 16.0025 8.08597 15.9932C8.27159 15.9631 8.43468 15.8147 8.48409 15.631C8.50194 15.5646 8.5033 15.4404 8.48686 15.3792C8.44071 15.2074 8.31676 15.0762 8.14718 15.0197L8.10238 15.0048L7.30238 15.0016L6.50238 14.9984L6.50077 13.4999L6.49916 12.0014L6.88477 11.998C7.35358 11.9939 7.4827 11.9844 7.78238 11.9319C8.50596 11.805 9.18429 11.503 9.76958 11.0471C10.0414 10.8355 10.3329 10.5438 10.548 10.2685C11.0479 9.62841 11.365 8.86528 11.4654 8.06075C11.5001 7.78306 11.5002 7.77615 11.5005 6.56955C11.5007 5.66795 11.4991 5.44082 11.4923 5.40475C11.4576 5.22037 11.311 5.06414 11.1253 5.01353C11.062 4.99627 10.933 4.99773 10.8675 5.01645C10.7214 5.05826 10.596 5.1682 10.5378 5.30555C10.5005 5.39359 10.5033 5.30324 10.4989 6.56635C10.4948 7.74494 10.4947 7.7526 10.47 7.94555C10.3899 8.57342 10.1409 9.16765 9.75111 9.66075C9.31964 10.2066 8.74774 10.6084 8.09918 10.8211C7.81262 10.9152 7.57477 10.9629 7.25758 10.9901C7.11887 11.002 4.88139 11.002 4.74238 10.9901C4.49493 10.969 4.26443 10.9289 4.06718 10.8728C3.46844 10.7025 2.96252 10.4073 2.52981 9.9756C2.09761 9.54446 1.80021 9.0376 1.62907 8.44045C1.57579 8.25454 1.54148 8.06529 1.51266 7.79835C1.50723 7.7481 1.50397 7.39553 1.50127 6.56635L1.49749 5.40475L1.48245 5.35995C1.42437 5.18695 1.29955 5.06395 1.13484 5.01741C1.08098 5.00219 0.972931 4.99597 0.916822 5.00486Z"/>
</mask>
<path fill-rule="evenodd" clip-rule="evenodd" d="M4.90878 0.0042219C4.41262 0.0490091 3.95257 0.223211 3.55838 0.515563C3.32247 0.690519 3.10771 0.916024 2.94272 1.16201C2.69664 1.52891 2.54615 1.95364 2.50588 2.39496C2.49635 2.49948 2.49628 7.49624 2.50582 7.60174C2.55511 8.1471 2.763 8.64535 3.11928 9.07195C3.23253 9.20756 3.42844 9.39001 3.57758 9.49878C3.91792 9.74697 4.31922 9.91204 4.73424 9.97454C4.91978 10.0025 4.94909 10.0032 5.99998 10.0032C7.05088 10.0032 7.08019 10.0025 7.26573 9.97454C8.4635 9.79415 9.38466 8.81333 9.49414 7.60183C9.50348 7.49849 9.50361 2.5067 9.49428 2.40128C9.47154 2.14441 9.41642 1.91063 9.31971 1.66075C9.27655 1.54925 9.16434 1.32854 9.09746 1.22361C8.83831 0.817041 8.48828 0.498135 8.06359 0.281681C7.80085 0.147767 7.53811 0.0655019 7.21968 0.0174379C7.1307 0.0040043 7.11603 0.0038251 6.03198 0.0028779C5.4283 0.0023467 4.92286 0.0029547 4.90878 0.0042219ZM4.98238 1.00282C4.91877 1.00816 4.78895 1.03189 4.70974 1.05266C4.44018 1.12331 4.19885 1.26033 3.99439 1.4588C3.77872 1.66814 3.62309 1.93546 3.54894 2.22395C3.5046 2.39647 3.49555 2.50176 3.50125 2.77915L3.50582 3.00155H4.28604C5.15108 3.00155 5.10913 2.99963 5.20536 3.04373C5.33694 3.10402 5.43923 3.22007 5.48061 3.356C5.4941 3.40031 5.49648 3.42114 5.49676 3.49755C5.49713 3.59887 5.48864 3.64066 5.45255 3.71515C5.392 3.84011 5.2779 3.93878 5.14567 3.98055L5.09438 3.99675L4.29918 3.9985L3.50398 4.00024V4.49913V4.99801L4.29598 4.99989L5.08798 5.00176L5.13484 5.0162C5.30579 5.06891 5.42896 5.19182 5.48249 5.36315C5.50369 5.43099 5.50389 5.56061 5.48291 5.63393C5.42631 5.83178 5.25926 5.97316 5.05434 5.99664C5.0201 6.00056 4.70835 6.00307 4.25118 6.0031L3.50398 6.00315L3.50238 6.62875C3.50014 7.50693 3.50018 7.51083 3.51328 7.59995C3.61247 8.27453 4.11429 8.81717 4.77394 8.96315C4.93582 8.99897 4.91433 8.99835 5.99998 8.99835C7.08635 8.99835 7.06494 8.99897 7.22603 8.96299C7.64978 8.86833 8.01444 8.61158 8.25048 8.24168C8.33865 8.10352 8.41285 7.92868 8.4536 7.76315C8.50064 7.57198 8.49832 7.62102 8.50074 6.76955L8.50291 6.00315L7.75225 6.0031C7.29277 6.00307 6.97987 6.00056 6.94563 5.99664C6.82332 5.98262 6.73384 5.93877 6.64638 5.84999C6.56571 5.76811 6.52563 5.69248 6.50726 5.58746C6.49641 5.52544 6.49959 5.42535 6.51409 5.37275C6.56066 5.20375 6.6929 5.06917 6.86416 5.01647L6.91198 5.00176L7.70718 4.99989L8.50238 4.99801V4.49913V4.00024L7.70398 3.99842L6.90558 3.9966L6.85758 3.98189C6.69432 3.93185 6.55939 3.79305 6.5143 3.62875C6.50576 3.59765 6.50297 3.56455 6.50321 3.49755C6.50349 3.42114 6.50586 3.40031 6.51936 3.356C6.56003 3.22239 6.66168 3.10564 6.78935 3.0459C6.88265 3.00224 6.8171 3.00542 7.69918 3.00171L8.49918 2.99835V2.74555C8.49918 2.57152 8.49653 2.47281 8.49067 2.42875C8.44967 2.12051 8.32256 1.82624 8.12914 1.59177C7.87539 1.28417 7.53755 1.09028 7.12638 1.0163L7.04638 1.00191L6.02878 1.00115C5.4691 1.00074 4.99822 1.00149 4.98238 1.00282ZM0.916822 5.00486C0.724214 5.03537 0.551746 5.19856 0.51151 5.38835C0.497737 5.45332 0.4983 7.64707 0.512137 7.83035C0.586102 8.81007 0.958793 9.70576 1.60265 10.4512C1.70577 10.5705 1.93233 10.7971 2.05118 10.8996C2.67578 11.4385 3.41717 11.7918 4.21758 11.9319C4.51765 11.9845 4.64652 11.9939 5.11518 11.998L5.50078 12.0014V13.5013V15.0013L4.69918 15.003L3.89758 15.0048L3.84851 15.0215C3.68352 15.0778 3.5622 15.2052 3.51568 15.3709C3.49636 15.4398 3.49645 15.5588 3.51588 15.631C3.56528 15.8147 3.72838 15.9631 3.914 15.9932C3.9715 16.0025 8.02847 16.0025 8.08597 15.9932C8.27159 15.9631 8.43468 15.8147 8.48409 15.631C8.50194 15.5646 8.5033 15.4404 8.48686 15.3792C8.44071 15.2074 8.31676 15.0762 8.14718 15.0197L8.10238 15.0048L7.30238 15.0016L6.50238 14.9984L6.50077 13.4999L6.49916 12.0014L6.88477 11.998C7.35358 11.9939 7.4827 11.9844 7.78238 11.9319C8.50596 11.805 9.18429 11.503 9.76958 11.0471C10.0414 10.8355 10.3329 10.5438 10.548 10.2685C11.0479 9.62841 11.365 8.86528 11.4654 8.06075C11.5001 7.78306 11.5002 7.77615 11.5005 6.56955C11.5007 5.66795 11.4991 5.44082 11.4923 5.40475C11.4576 5.22037 11.311 5.06414 11.1253 5.01353C11.062 4.99627 10.933 4.99773 10.8675 5.01645C10.7214 5.05826 10.596 5.1682 10.5378 5.30555C10.5005 5.39359 10.5033 5.30324 10.4989 6.56635C10.4948 7.74494 10.4947 7.7526 10.47 7.94555C10.3899 8.57342 10.1409 9.16765 9.75111 9.66075C9.31964 10.2066 8.74774 10.6084 8.09918 10.8211C7.81262 10.9152 7.57477 10.9629 7.25758 10.9901C7.11887 11.002 4.88139 11.002 4.74238 10.9901C4.49493 10.969 4.26443 10.9289 4.06718 10.8728C3.46844 10.7025 2.96252 10.4073 2.52981 9.9756C2.09761 9.54446 1.80021 9.0376 1.62907 8.44045C1.57579 8.25454 1.54148 8.06529 1.51266 7.79835C1.50723 7.7481 1.50397 7.39553 1.50127 6.56635L1.49749 5.40475L1.48245 5.35995C1.42437 5.18695 1.29955 5.06395 1.13484 5.01741C1.08098 5.00219 0.972931 4.99597 0.916822 5.00486Z" fill="#4B5565" stroke="#4B5565" stroke-width="0.0128" mask="url(#path-1-inside-1_649_3936)"/>
</svg>
