<svg width="14" height="16" viewBox="0 0 14 16" fill="none" xmlns="http://www.w3.org/2000/svg">
<mask id="path-1-inside-1_649_3864" fill="white">
<path fill-rule="evenodd" clip-rule="evenodd" d="M6.74727 0.0196128C5.80227 0.0542112 4.88352 0.288099 4.02087 0.713667C3.10232 1.16681 2.27797 1.85066 1.6485 2.68169C0.897596 3.67305 0.43311 4.87102 0.322179 6.10249C0.299664 6.35237 0.296432 6.43058 0.296387 6.72649C0.296329 7.09859 0.309916 7.31412 0.354096 7.64165C0.500252 8.72521 0.925699 9.78561 1.56738 10.6657C1.70784 10.8583 1.87577 11.0654 2.01986 11.2235C2.1503 11.3667 2.25619 11.418 2.4216 11.4182C2.54054 11.4183 2.63104 11.3879 2.72418 11.3167C2.86603 11.2083 2.93891 11.0351 2.91698 10.8586C2.90294 10.7456 2.86493 10.6686 2.76958 10.56C2.52117 10.277 2.36952 10.0798 2.20786 9.82936C1.63918 8.94846 1.32517 7.93576 1.29833 6.89609C1.27093 5.83462 1.51428 4.84418 2.02858 3.92392C2.40902 3.24318 2.96259 2.61707 3.6105 2.1347C4.1953 1.69932 4.87525 1.37666 5.59847 1.19137C6.21103 1.03442 6.88796 0.981578 7.53127 1.04048C8.68237 1.1459 9.76514 1.59364 10.6523 2.33107C11.1058 2.70807 11.5268 3.18496 11.8311 3.66638C12.5394 4.78693 12.8371 6.11262 12.6765 7.43049C12.5975 8.07905 12.3997 8.72669 12.1007 9.31529C11.8778 9.75424 11.6323 10.1153 11.2913 10.5057C11.1789 10.6345 11.1521 10.6721 11.1275 10.7357C11.1003 10.806 11.094 10.8506 11.0977 10.9457C11.1014 11.0393 11.112 11.0806 11.1512 11.1557C11.2147 11.277 11.3504 11.3815 11.4794 11.4084C11.5707 11.4274 11.6912 11.4195 11.7708 11.3891C11.8595 11.3554 11.9154 11.3115 12.0212 11.1926C12.5872 10.5564 13.0119 9.84999 13.3041 9.05929C13.5333 8.43885 13.6589 7.84778 13.7086 7.15529C13.7211 6.98127 13.719 6.44449 13.7052 6.26569C13.6709 5.82186 13.6158 5.47497 13.5179 5.08489C13.3201 4.29776 12.9597 3.51305 12.4956 2.85946C11.8537 1.95545 11.012 1.22864 10.0369 0.736413C9.0124 0.219293 7.90199 -0.0226656 6.74727 0.0196128ZM6.70247 2.30478C6.07432 2.34782 5.44779 2.53296 4.90087 2.83716C4.09552 3.28508 3.45518 3.97245 3.06926 4.80329C2.85323 5.26839 2.72994 5.73723 2.67879 6.28809C2.66604 6.42533 2.66808 6.873 2.68208 7.01129C2.73974 7.58109 2.87296 8.05496 3.11207 8.54089C3.22838 8.77726 3.34135 8.96409 3.40675 9.02825C3.54098 9.15995 3.75481 9.20291 3.9334 9.13407C4.02606 9.09836 4.13534 9.00745 4.18328 8.92621C4.23236 8.84304 4.25806 8.73598 4.25266 8.63715C4.2471 8.53552 4.22626 8.48014 4.13953 8.33653C3.92075 7.97427 3.77007 7.55378 3.70477 7.12329C3.67006 6.89447 3.65879 6.58043 3.67766 6.36809C3.72946 5.78526 3.90884 5.26418 4.22019 4.79215C4.64595 4.14668 5.29518 3.66208 6.03047 3.44093C6.36782 3.33946 6.64099 3.29966 7.00007 3.29966C7.21061 3.29966 7.33806 3.30855 7.50567 3.33491C8.09969 3.42834 8.64546 3.67076 9.10247 4.04418C9.65838 4.49842 10.0485 5.10677 10.2255 5.79529C10.299 6.08109 10.3307 6.3368 10.3304 6.64009C10.3298 7.08868 10.245 7.50767 10.0705 7.92329C10.0221 8.03842 9.9227 8.23449 9.86153 8.33533C9.77404 8.47955 9.75305 8.53509 9.74748 8.63715C9.74208 8.73598 9.76777 8.84304 9.81685 8.92621C9.8648 9.00745 9.97408 9.09836 10.0667 9.13407C10.147 9.16502 10.2572 9.17506 10.3396 9.15893C10.4661 9.13419 10.5863 9.05739 10.6539 8.95812C10.7401 8.83143 10.9045 8.52174 10.9823 8.33929C11.164 7.91363 11.2686 7.50009 11.3181 7.01129C11.3322 6.87202 11.3341 6.4247 11.3212 6.28809C11.2687 5.73195 11.1469 5.26849 10.9309 4.80329C10.5457 3.97377 9.9036 3.28451 9.09927 2.83716C8.54604 2.52946 7.92471 2.34718 7.28276 2.30425C7.1698 2.2967 6.81567 2.29702 6.70247 2.30478ZM6.88167 4.5635C5.927 4.61284 5.11275 5.30915 4.91358 6.24649C4.87846 6.41177 4.8725 6.47555 4.87227 6.68809C4.87205 6.89906 4.87667 6.95407 4.90779 7.11049C5.0526 7.83839 5.56697 8.43986 6.26407 8.69644C6.37553 8.73747 6.46789 8.7632 6.58727 8.78647C6.7468 8.81758 6.80315 8.82249 7.00007 8.82249C7.19664 8.82249 7.2539 8.81752 7.41082 8.78679C7.59796 8.75015 7.75216 8.69865 7.92487 8.61511C8.15325 8.50462 8.33274 8.37705 8.51058 8.19881C8.79788 7.91085 8.99358 7.55491 9.08291 7.15787C9.11991 6.99343 9.12732 6.91783 9.12771 6.70089C9.12814 6.45726 9.11594 6.35226 9.06412 6.15369C8.84641 5.31947 8.1479 4.6994 7.29024 4.579C7.23323 4.571 6.99726 4.55509 6.97767 4.55794C6.97415 4.55845 6.93095 4.56095 6.88167 4.5635ZM6.90407 5.56525C6.89527 5.56674 6.86359 5.57113 6.83367 5.57502C6.51097 5.6169 6.2075 5.81966 6.02866 6.11286C5.95799 6.22874 5.90263 6.38389 5.87937 6.53129C5.86873 6.59869 5.86874 6.78587 5.87938 6.85449C5.91779 7.10238 6.02872 7.3224 6.20114 7.49269C6.37907 7.66844 6.57909 7.7701 6.83047 7.81253C6.9074 7.82552 7.09273 7.82552 7.16967 7.81253C7.41306 7.77144 7.61056 7.67317 7.78314 7.50729C7.96828 7.32935 8.08419 7.10417 8.12084 6.85129C8.13155 6.77735 8.13147 6.6046 8.12069 6.53449C8.0822 6.28418 7.97458 6.06962 7.79988 5.89493C7.63031 5.72535 7.42165 5.61717 7.18669 5.57701C7.13323 5.56787 6.93685 5.5597 6.90407 5.56525ZM6.02087 9.11808C5.95383 9.12309 5.80737 9.14688 5.73607 9.16433C5.49066 9.22439 5.26585 9.33152 5.05767 9.48761C4.96835 9.55458 4.80345 9.71573 4.73302 9.80489C4.45546 10.1562 4.31085 10.6065 4.33736 11.0369C4.34562 11.1708 4.70492 14.3759 4.72443 14.4897C4.78828 14.8619 4.9642 15.2003 5.23342 15.469C5.51711 15.752 5.86983 15.9295 6.26404 15.9873C6.34577 15.9993 6.38579 16 7.00048 16.0001C7.74366 16.0001 7.73724 16.0005 7.94969 15.9451C8.55248 15.7882 9.04896 15.3099 9.2299 14.7118C9.25447 14.6306 9.28067 14.516 9.29093 14.4449C9.29475 14.4185 9.3716 13.6611 9.46173 12.7617C9.60508 11.3312 9.62599 11.1087 9.62879 10.9841C9.63305 10.7951 9.61892 10.6639 9.57631 10.4967C9.49342 10.1714 9.33356 9.89135 9.09336 9.65061C8.78831 9.34488 8.39487 9.16023 7.96327 9.12023C7.89934 9.1143 6.09803 9.11231 6.02087 9.11808ZM6.09291 10.119C5.72547 10.1526 5.43127 10.4168 5.35166 10.7846C5.34602 10.8107 5.33994 10.8681 5.33817 10.9121C5.33518 10.9863 5.34819 11.1103 5.51783 12.6241C5.61842 13.5217 5.70511 14.2826 5.71047 14.315C5.73921 14.4884 5.82537 14.6486 5.95781 14.7747C6.0503 14.8629 6.14984 14.9232 6.26794 14.9628C6.38986 15.0036 6.38402 15.0033 6.94247 15.0063C7.47435 15.0092 7.56732 15.0062 7.66718 14.9829C7.76638 14.9598 7.87424 14.9118 7.95367 14.8555C8.01212 14.8141 8.10268 14.7257 8.14566 14.6681C8.21604 14.5737 8.27557 14.4358 8.29493 14.3223C8.29995 14.2929 8.37848 13.5228 8.46946 12.6108L8.63488 10.9527L8.6272 10.8764C8.6093 10.6981 8.54808 10.5499 8.43614 10.4138C8.39198 10.3601 8.3198 10.2947 8.26087 10.2548C8.21544 10.2241 8.11811 10.1773 8.05719 10.1569C7.92987 10.1143 7.98279 10.1164 7.02247 10.1149C6.54375 10.1142 6.12544 10.116 6.09291 10.119Z"/>
</mask>
<path fill-rule="evenodd" clip-rule="evenodd" d="M6.74727 0.0196128C5.80227 0.0542112 4.88352 0.288099 4.02087 0.713667C3.10232 1.16681 2.27797 1.85066 1.6485 2.68169C0.897596 3.67305 0.43311 4.87102 0.322179 6.10249C0.299664 6.35237 0.296432 6.43058 0.296387 6.72649C0.296329 7.09859 0.309916 7.31412 0.354096 7.64165C0.500252 8.72521 0.925699 9.78561 1.56738 10.6657C1.70784 10.8583 1.87577 11.0654 2.01986 11.2235C2.1503 11.3667 2.25619 11.418 2.4216 11.4182C2.54054 11.4183 2.63104 11.3879 2.72418 11.3167C2.86603 11.2083 2.93891 11.0351 2.91698 10.8586C2.90294 10.7456 2.86493 10.6686 2.76958 10.56C2.52117 10.277 2.36952 10.0798 2.20786 9.82936C1.63918 8.94846 1.32517 7.93576 1.29833 6.89609C1.27093 5.83462 1.51428 4.84418 2.02858 3.92392C2.40902 3.24318 2.96259 2.61707 3.6105 2.1347C4.1953 1.69932 4.87525 1.37666 5.59847 1.19137C6.21103 1.03442 6.88796 0.981578 7.53127 1.04048C8.68237 1.1459 9.76514 1.59364 10.6523 2.33107C11.1058 2.70807 11.5268 3.18496 11.8311 3.66638C12.5394 4.78693 12.8371 6.11262 12.6765 7.43049C12.5975 8.07905 12.3997 8.72669 12.1007 9.31529C11.8778 9.75424 11.6323 10.1153 11.2913 10.5057C11.1789 10.6345 11.1521 10.6721 11.1275 10.7357C11.1003 10.806 11.094 10.8506 11.0977 10.9457C11.1014 11.0393 11.112 11.0806 11.1512 11.1557C11.2147 11.277 11.3504 11.3815 11.4794 11.4084C11.5707 11.4274 11.6912 11.4195 11.7708 11.3891C11.8595 11.3554 11.9154 11.3115 12.0212 11.1926C12.5872 10.5564 13.0119 9.84999 13.3041 9.05929C13.5333 8.43885 13.6589 7.84778 13.7086 7.15529C13.7211 6.98127 13.719 6.44449 13.7052 6.26569C13.6709 5.82186 13.6158 5.47497 13.5179 5.08489C13.3201 4.29776 12.9597 3.51305 12.4956 2.85946C11.8537 1.95545 11.012 1.22864 10.0369 0.736413C9.0124 0.219293 7.90199 -0.0226656 6.74727 0.0196128ZM6.70247 2.30478C6.07432 2.34782 5.44779 2.53296 4.90087 2.83716C4.09552 3.28508 3.45518 3.97245 3.06926 4.80329C2.85323 5.26839 2.72994 5.73723 2.67879 6.28809C2.66604 6.42533 2.66808 6.873 2.68208 7.01129C2.73974 7.58109 2.87296 8.05496 3.11207 8.54089C3.22838 8.77726 3.34135 8.96409 3.40675 9.02825C3.54098 9.15995 3.75481 9.20291 3.9334 9.13407C4.02606 9.09836 4.13534 9.00745 4.18328 8.92621C4.23236 8.84304 4.25806 8.73598 4.25266 8.63715C4.2471 8.53552 4.22626 8.48014 4.13953 8.33653C3.92075 7.97427 3.77007 7.55378 3.70477 7.12329C3.67006 6.89447 3.65879 6.58043 3.67766 6.36809C3.72946 5.78526 3.90884 5.26418 4.22019 4.79215C4.64595 4.14668 5.29518 3.66208 6.03047 3.44093C6.36782 3.33946 6.64099 3.29966 7.00007 3.29966C7.21061 3.29966 7.33806 3.30855 7.50567 3.33491C8.09969 3.42834 8.64546 3.67076 9.10247 4.04418C9.65838 4.49842 10.0485 5.10677 10.2255 5.79529C10.299 6.08109 10.3307 6.3368 10.3304 6.64009C10.3298 7.08868 10.245 7.50767 10.0705 7.92329C10.0221 8.03842 9.9227 8.23449 9.86153 8.33533C9.77404 8.47955 9.75305 8.53509 9.74748 8.63715C9.74208 8.73598 9.76777 8.84304 9.81685 8.92621C9.8648 9.00745 9.97408 9.09836 10.0667 9.13407C10.147 9.16502 10.2572 9.17506 10.3396 9.15893C10.4661 9.13419 10.5863 9.05739 10.6539 8.95812C10.7401 8.83143 10.9045 8.52174 10.9823 8.33929C11.164 7.91363 11.2686 7.50009 11.3181 7.01129C11.3322 6.87202 11.3341 6.4247 11.3212 6.28809C11.2687 5.73195 11.1469 5.26849 10.9309 4.80329C10.5457 3.97377 9.9036 3.28451 9.09927 2.83716C8.54604 2.52946 7.92471 2.34718 7.28276 2.30425C7.1698 2.2967 6.81567 2.29702 6.70247 2.30478ZM6.88167 4.5635C5.927 4.61284 5.11275 5.30915 4.91358 6.24649C4.87846 6.41177 4.8725 6.47555 4.87227 6.68809C4.87205 6.89906 4.87667 6.95407 4.90779 7.11049C5.0526 7.83839 5.56697 8.43986 6.26407 8.69644C6.37553 8.73747 6.46789 8.7632 6.58727 8.78647C6.7468 8.81758 6.80315 8.82249 7.00007 8.82249C7.19664 8.82249 7.2539 8.81752 7.41082 8.78679C7.59796 8.75015 7.75216 8.69865 7.92487 8.61511C8.15325 8.50462 8.33274 8.37705 8.51058 8.19881C8.79788 7.91085 8.99358 7.55491 9.08291 7.15787C9.11991 6.99343 9.12732 6.91783 9.12771 6.70089C9.12814 6.45726 9.11594 6.35226 9.06412 6.15369C8.84641 5.31947 8.1479 4.6994 7.29024 4.579C7.23323 4.571 6.99726 4.55509 6.97767 4.55794C6.97415 4.55845 6.93095 4.56095 6.88167 4.5635ZM6.90407 5.56525C6.89527 5.56674 6.86359 5.57113 6.83367 5.57502C6.51097 5.6169 6.2075 5.81966 6.02866 6.11286C5.95799 6.22874 5.90263 6.38389 5.87937 6.53129C5.86873 6.59869 5.86874 6.78587 5.87938 6.85449C5.91779 7.10238 6.02872 7.3224 6.20114 7.49269C6.37907 7.66844 6.57909 7.7701 6.83047 7.81253C6.9074 7.82552 7.09273 7.82552 7.16967 7.81253C7.41306 7.77144 7.61056 7.67317 7.78314 7.50729C7.96828 7.32935 8.08419 7.10417 8.12084 6.85129C8.13155 6.77735 8.13147 6.6046 8.12069 6.53449C8.0822 6.28418 7.97458 6.06962 7.79988 5.89493C7.63031 5.72535 7.42165 5.61717 7.18669 5.57701C7.13323 5.56787 6.93685 5.5597 6.90407 5.56525ZM6.02087 9.11808C5.95383 9.12309 5.80737 9.14688 5.73607 9.16433C5.49066 9.22439 5.26585 9.33152 5.05767 9.48761C4.96835 9.55458 4.80345 9.71573 4.73302 9.80489C4.45546 10.1562 4.31085 10.6065 4.33736 11.0369C4.34562 11.1708 4.70492 14.3759 4.72443 14.4897C4.78828 14.8619 4.9642 15.2003 5.23342 15.469C5.51711 15.752 5.86983 15.9295 6.26404 15.9873C6.34577 15.9993 6.38579 16 7.00048 16.0001C7.74366 16.0001 7.73724 16.0005 7.94969 15.9451C8.55248 15.7882 9.04896 15.3099 9.2299 14.7118C9.25447 14.6306 9.28067 14.516 9.29093 14.4449C9.29475 14.4185 9.3716 13.6611 9.46173 12.7617C9.60508 11.3312 9.62599 11.1087 9.62879 10.9841C9.63305 10.7951 9.61892 10.6639 9.57631 10.4967C9.49342 10.1714 9.33356 9.89135 9.09336 9.65061C8.78831 9.34488 8.39487 9.16023 7.96327 9.12023C7.89934 9.1143 6.09803 9.11231 6.02087 9.11808ZM6.09291 10.119C5.72547 10.1526 5.43127 10.4168 5.35166 10.7846C5.34602 10.8107 5.33994 10.8681 5.33817 10.9121C5.33518 10.9863 5.34819 11.1103 5.51783 12.6241C5.61842 13.5217 5.70511 14.2826 5.71047 14.315C5.73921 14.4884 5.82537 14.6486 5.95781 14.7747C6.0503 14.8629 6.14984 14.9232 6.26794 14.9628C6.38986 15.0036 6.38402 15.0033 6.94247 15.0063C7.47435 15.0092 7.56732 15.0062 7.66718 14.9829C7.76638 14.9598 7.87424 14.9118 7.95367 14.8555C8.01212 14.8141 8.10268 14.7257 8.14566 14.6681C8.21604 14.5737 8.27557 14.4358 8.29493 14.3223C8.29995 14.2929 8.37848 13.5228 8.46946 12.6108L8.63488 10.9527L8.6272 10.8764C8.6093 10.6981 8.54808 10.5499 8.43614 10.4138C8.39198 10.3601 8.3198 10.2947 8.26087 10.2548C8.21544 10.2241 8.11811 10.1773 8.05719 10.1569C7.92987 10.1143 7.98279 10.1164 7.02247 10.1149C6.54375 10.1142 6.12544 10.116 6.09291 10.119Z" fill="#4B5565" stroke="#4B5565" stroke-width="0.0128" mask="url(#path-1-inside-1_649_3864)"/>
</svg>
