<svg width="16" height="16" viewBox="0 0 16 16" fill="none" xmlns="http://www.w3.org/2000/svg">
<g clip-path="url(#clip0_1_3176)">
<path d="M8 11.5C7.9337 11.5 7.87011 11.4737 7.82322 11.4268C7.77634 11.3799 7.75 11.3163 7.75 11.25C7.75 11.1837 7.77634 11.1201 7.82322 11.0732C7.87011 11.0263 7.9337 11 8 11" stroke="#0D121C"/>
<path d="M8 11.5C8.0663 11.5 8.12989 11.4737 8.17678 11.4268C8.22366 11.3799 8.25 11.3163 8.25 11.25C8.25 11.1837 8.22366 11.1201 8.17678 11.0732C8.12989 11.0263 8.0663 11 8 11" stroke="#0D121C"/>
<path d="M8 9V3.5" stroke="#0D121C" stroke-miterlimit="10" stroke-linecap="round"/>
<path d="M8 15.5C12.142 15.5 15.5 12.142 15.5 8C15.5 3.858 12.142 0.5 8 0.5C3.858 0.5 0.5 3.858 0.5 8C0.5 12.142 3.858 15.5 8 15.5Z" stroke="#0D121C" stroke-miterlimit="10"/>
</g>
<defs>
<clipPath id="clip0_1_3176">
<rect width="16" height="16" fill="white"/>
</clipPath>
</defs>
</svg>
