<svg width="16" height="16" viewBox="0 0 16 16" fill="none" xmlns="http://www.w3.org/2000/svg">
<g clip-path="url(#clip0_1_3221)">
<path d="M7 8.35067C7.00036 8.52347 6.9321 8.68935 6.81022 8.81185C6.68834 8.93436 6.52281 9.00347 6.35 9.004H1.15C1.06441 9.00382 0.979696 8.98678 0.900696 8.95384C0.821696 8.92091 0.749962 8.87273 0.689595 8.81205C0.629228 8.75137 0.581412 8.67939 0.548881 8.60023C0.516349 8.52106 0.49974 8.43626 0.500003 8.35067V1.15733C0.499828 1.07171 0.516519 0.986891 0.549123 0.90772C0.581727 0.828548 0.629606 0.756574 0.690026 0.695907C0.750446 0.635239 0.822224 0.587066 0.901261 0.554138C0.980299 0.52121 1.06505 0.504173 1.15067 0.503998L6.35067 0.512664C6.52336 0.51337 6.68872 0.582558 6.81045 0.705043C6.93219 0.827529 7.00036 0.993307 7 1.166V8.35067Z" stroke="#0D121C" stroke-linecap="round" stroke-linejoin="round"/>
<path d="M15.4973 4.36267C15.4961 4.53388 15.4269 4.6976 15.3051 4.81786C15.1832 4.93811 15.0185 5.00506 14.8473 5.004H9.64733C9.56253 5.00461 9.47843 4.98851 9.39986 4.9566C9.32129 4.9247 9.24977 4.87762 9.1894 4.81806C9.12904 4.75849 9.081 4.68762 9.04804 4.60948C9.01509 4.53134 8.99785 4.44747 8.99733 4.36267V1.154C8.99839 0.982962 9.0673 0.81934 9.18893 0.699085C9.31056 0.57883 9.47496 0.511779 9.646 0.512666L14.846 0.504C15.0174 0.502757 15.1823 0.569608 15.3044 0.689863C15.4265 0.810119 15.4959 0.973941 15.4973 1.14533V4.36267Z" stroke="#0D121C" stroke-linecap="round" stroke-linejoin="round"/>
<path d="M7 14.8607C6.99948 14.9457 6.98221 15.0298 6.9492 15.1081C6.91618 15.1864 6.86806 15.2575 6.80758 15.3172C6.74709 15.377 6.67544 15.4242 6.5967 15.4563C6.51796 15.4883 6.43368 15.5045 6.34867 15.504L1.14867 15.4953C0.977451 15.4961 0.812958 15.4288 0.691328 15.3083C0.569698 15.1878 0.500882 15.0239 0.5 14.8527V11.6467C0.500436 11.5618 0.5176 11.4778 0.550511 11.3996C0.583421 11.3213 0.631432 11.2503 0.691799 11.1906C0.752166 11.1309 0.823706 11.0837 0.902327 11.0517C0.980948 11.0197 1.06511 11.0035 1.15 11.004H6.35C6.52139 11.0031 6.68613 11.0703 6.80801 11.1908C6.92989 11.3113 6.99894 11.4753 7 11.6467V14.8607Z" stroke="#0D121C" stroke-linecap="round" stroke-linejoin="round"/>
<path d="M9.648 15.504C9.56232 15.5038 9.47752 15.4868 9.39844 15.4538C9.31936 15.4208 9.24755 15.3726 9.18712 15.3119C9.12669 15.2511 9.07883 15.1791 9.04626 15.0998C9.0137 15.0206 8.99707 14.9357 8.99733 14.85V7.658C8.99707 7.57238 9.01367 7.48754 9.0462 7.40834C9.07872 7.32913 9.12653 7.25711 9.18688 7.19638C9.24724 7.13565 9.31897 7.0874 9.39797 7.05439C9.47698 7.02138 9.56171 7.00426 9.64733 7.004H14.8473C14.933 7.00426 15.0177 7.02138 15.0967 7.05439C15.1757 7.0874 15.2474 7.13565 15.3078 7.19638C15.3681 7.25711 15.4159 7.32913 15.4485 7.40834C15.481 7.48754 15.4976 7.57238 15.4973 7.658V14.8413C15.4977 15.0141 15.4295 15.1799 15.3078 15.3025C15.1861 15.4251 15.0208 15.4944 14.848 15.4953L9.648 15.504Z" stroke="#0D121C" stroke-linecap="round" stroke-linejoin="round"/>
</g>
<defs>
<clipPath id="clip0_1_3221">
<rect width="16" height="16" fill="white"/>
</clipPath>
</defs>
</svg>
