<svg width="16" height="12" viewBox="0 0 16 12" fill="none" xmlns="http://www.w3.org/2000/svg">
<mask id="path-1-inside-1_651_8828" fill="white">
<path fill-rule="evenodd" clip-rule="evenodd" d="M0.844252 0.68757C0.723612 0.724002 0.583036 0.858817 0.534524 0.984625C0.504764 1.06179 0.504028 1.18624 0.504028 6.17568V11.2877L0.540956 11.3693C0.584252 11.4649 0.6827 11.5658 0.784028 11.6183L0.856028 11.6557H8.00003H15.144L15.216 11.6183C15.3174 11.5658 15.4158 11.4649 15.4591 11.3693L15.496 11.2877V6.17568C15.496 1.18624 15.4953 1.06179 15.4655 0.984625C15.4289 0.889665 15.3326 0.781138 15.233 0.722546L15.16 0.679681L8.02403 0.677025C4.09923 0.675553 0.868332 0.680306 0.844252 0.68757ZM2.26448 1.69408C2.31094 1.73887 6.95227 5.30603 7.05832 5.37848C7.19113 5.4692 7.40432 5.56424 7.58073 5.61136C7.71809 5.64805 7.76652 5.65285 8.00003 5.65285C8.23353 5.65285 8.28197 5.64805 8.41932 5.61136C8.59574 5.56424 8.80892 5.4692 8.94174 5.37848C9.04779 5.30603 13.6891 1.73887 13.7356 1.69408C13.7666 1.66421 13.6668 1.66368 8.00003 1.66368C2.33328 1.66368 2.23347 1.66421 2.26448 1.69408ZM1.50403 6.52573V10.6717H8.00003H14.496V6.52573C14.496 3.21107 14.492 2.38298 14.476 2.39579C14.2147 2.60536 9.5503 6.18018 9.46219 6.23847C8.79784 6.67795 7.91395 6.7869 7.12803 6.52619C6.94609 6.46583 6.7008 6.34624 6.53787 6.23847C6.44976 6.18018 1.7854 2.60536 1.52403 2.39579C1.50804 2.38298 1.50403 3.21107 1.50403 6.52573Z"/>
</mask>
<path fill-rule="evenodd" clip-rule="evenodd" d="M0.844252 0.68757C0.723612 0.724002 0.583036 0.858817 0.534524 0.984625C0.504764 1.06179 0.504028 1.18624 0.504028 6.17568V11.2877L0.540956 11.3693C0.584252 11.4649 0.6827 11.5658 0.784028 11.6183L0.856028 11.6557H8.00003H15.144L15.216 11.6183C15.3174 11.5658 15.4158 11.4649 15.4591 11.3693L15.496 11.2877V6.17568C15.496 1.18624 15.4953 1.06179 15.4655 0.984625C15.4289 0.889665 15.3326 0.781138 15.233 0.722546L15.16 0.679681L8.02403 0.677025C4.09923 0.675553 0.868332 0.680306 0.844252 0.68757ZM2.26448 1.69408C2.31094 1.73887 6.95227 5.30603 7.05832 5.37848C7.19113 5.4692 7.40432 5.56424 7.58073 5.61136C7.71809 5.64805 7.76652 5.65285 8.00003 5.65285C8.23353 5.65285 8.28197 5.64805 8.41932 5.61136C8.59574 5.56424 8.80892 5.4692 8.94174 5.37848C9.04779 5.30603 13.6891 1.73887 13.7356 1.69408C13.7666 1.66421 13.6668 1.66368 8.00003 1.66368C2.33328 1.66368 2.23347 1.66421 2.26448 1.69408ZM1.50403 6.52573V10.6717H8.00003H14.496V6.52573C14.496 3.21107 14.492 2.38298 14.476 2.39579C14.2147 2.60536 9.5503 6.18018 9.46219 6.23847C8.79784 6.67795 7.91395 6.7869 7.12803 6.52619C6.94609 6.46583 6.7008 6.34624 6.53787 6.23847C6.44976 6.18018 1.7854 2.60536 1.52403 2.39579C1.50804 2.38298 1.50403 3.21107 1.50403 6.52573Z" fill="#0D121C"/>
<path d="M0.844252 0.68757L0.555446 -0.269818L0.555158 -0.269731L0.844252 0.68757ZM0.534524 0.984625L1.46755 1.34445L1.46756 1.34441L0.534524 0.984625ZM0.504028 11.2877H-0.495972V11.5035L-0.406992 11.7L0.504028 11.2877ZM0.540956 11.3693L-0.370064 11.7816L-0.370056 11.7816L0.540956 11.3693ZM0.784028 11.6183L0.323576 12.506L0.323614 12.506L0.784028 11.6183ZM0.856028 11.6557L0.395614 12.5434L0.612127 12.6557H0.856028V11.6557ZM15.144 11.6557V12.6557H15.3879L15.6044 12.5434L15.144 11.6557ZM15.216 11.6183L15.6764 12.506L15.6765 12.506L15.216 11.6183ZM15.4591 11.3693L16.3701 11.7816L16.3701 11.7816L15.4591 11.3693ZM15.496 11.2877L16.4071 11.7L16.496 11.5035V11.2877H15.496ZM15.4655 0.984625L16.3986 0.624804L16.3985 0.624783L15.4655 0.984625ZM15.233 0.722546L15.7399 -0.139446L15.7397 -0.139568L15.233 0.722546ZM15.16 0.679681L15.6667 -0.182432L15.4323 -0.320217L15.1604 -0.320319L15.16 0.679681ZM8.02403 0.677025L8.02365 1.67703H8.02366L8.02403 0.677025ZM2.26448 1.69408L2.95845 0.974078L2.95827 0.973906L2.26448 1.69408ZM7.05832 5.37848L6.49422 6.20419L6.49429 6.20424L7.05832 5.37848ZM7.58073 5.61136L7.32268 6.57749L7.32268 6.57749L7.58073 5.61136ZM8.41932 5.61136L8.67737 6.57749L8.67737 6.57749L8.41932 5.61136ZM8.94174 5.37848L9.50577 6.20424L9.50584 6.20419L8.94174 5.37848ZM13.7356 1.69408L13.0418 0.973906L13.0416 0.974078L13.7356 1.69408ZM1.50403 10.6717H0.504028V11.6717H1.50403V10.6717ZM14.496 10.6717V11.6717H15.496V10.6717H14.496ZM14.476 2.39579L15.1016 3.17598L15.1016 3.17598L14.476 2.39579ZM9.46219 6.23847L8.91046 5.40444L8.91046 5.40444L9.46219 6.23847ZM7.12803 6.52619L6.8131 7.47531L6.81318 7.47534L7.12803 6.52619ZM6.53787 6.23847L5.98614 7.07249L5.98616 7.0725L6.53787 6.23847ZM1.52403 2.39579L0.898477 3.17598L0.898483 3.17598L1.52403 2.39579ZM0.555158 -0.269731C0.296432 -0.191598 0.0982887 -0.0420272 -0.0298411 0.0808579C-0.161424 0.207054 -0.308119 0.390425 -0.398512 0.624843L1.46756 1.34441C1.44422 1.40494 1.41842 1.44572 1.40246 1.46825C1.38553 1.49216 1.36932 1.51011 1.35452 1.52431C1.33989 1.53834 1.3192 1.55583 1.28988 1.57454C1.26272 1.59189 1.21055 1.62156 1.13335 1.64487L0.555158 -0.269731ZM-0.398497 0.624804C-0.470837 0.812383 -0.477602 0.982817 -0.481901 1.08434C-0.487049 1.20595 -0.48993 1.40267 -0.491866 1.73218C-0.495793 2.4004 -0.495972 3.68301 -0.495972 6.17568H1.50403C1.50403 3.67891 1.50422 2.40457 1.5081 1.74393C1.51007 1.409 1.51295 1.24829 1.51631 1.16894C1.52052 1.06951 1.52501 1.19545 1.46755 1.34445L-0.398497 0.624804ZM-0.495972 6.17568V11.2877H1.50403V6.17568H-0.495972ZM-0.406992 11.7L-0.370064 11.7816L1.45198 10.9569L1.41505 10.8753L-0.406992 11.7ZM-0.370056 11.7816C-0.225894 12.1001 0.0415754 12.3597 0.323576 12.506L1.24448 10.7307C1.30162 10.7603 1.33578 10.7904 1.35639 10.8115C1.3752 10.8308 1.41521 10.8757 1.45197 10.9569L-0.370056 11.7816ZM0.323614 12.506L0.395614 12.5434L1.31644 10.768L1.24444 10.7306L0.323614 12.506ZM0.856028 12.6557H8.00003V10.6557H0.856028V12.6557ZM8.00003 12.6557H15.144V10.6557H8.00003V12.6557ZM15.6044 12.5434L15.6764 12.506L14.7556 10.7306L14.6836 10.768L15.6044 12.5434ZM15.6765 12.506C15.9585 12.3597 16.226 12.1001 16.3701 11.7816L14.5481 10.9569C14.5848 10.8757 14.6249 10.8308 14.6437 10.8115C14.6643 10.7904 14.6984 10.7603 14.7556 10.7307L15.6765 12.506ZM16.3701 11.7816L16.4071 11.7L14.585 10.8753L14.5481 10.9569L16.3701 11.7816ZM16.496 11.2877V6.17568H14.496V11.2877H16.496ZM16.496 6.17568C16.496 3.68301 16.4958 2.4004 16.4919 1.73218C16.49 1.40267 16.4871 1.20595 16.482 1.08434C16.4777 0.982817 16.4709 0.812383 16.3986 0.624804L14.5325 1.34445C14.4751 1.19545 14.4795 1.06951 14.4837 1.16894C14.4871 1.24829 14.49 1.409 14.492 1.74393C14.4958 2.40457 14.496 3.67891 14.496 6.17568H16.496ZM16.3985 0.624783C16.2697 0.290822 16.0063 0.0172265 15.7399 -0.139446L14.726 1.58454C14.6723 1.55292 14.6422 1.52316 14.6249 1.50371C14.6144 1.49182 14.6013 1.47545 14.5869 1.45317C14.5733 1.43198 14.5523 1.39585 14.5325 1.34447L16.3985 0.624783ZM15.7397 -0.139568L15.6667 -0.182432L14.6533 1.54179L14.7262 1.58466L15.7397 -0.139568ZM15.1604 -0.320319L8.0244 -0.322975L8.02366 1.67703L15.1597 1.67968L15.1604 -0.320319ZM8.0244 -0.322975C6.06158 -0.323711 4.27202 -0.322891 2.9699 -0.320977C2.31896 -0.320021 1.78923 -0.318791 1.4204 -0.317342C1.23621 -0.316618 1.09092 -0.315836 0.990331 -0.314995C0.940446 -0.314577 0.899243 -0.314127 0.869029 -0.313623C0.854585 -0.313381 0.838534 -0.313062 0.823855 -0.312593C0.817397 -0.312386 0.804586 -0.311949 0.789728 -0.311086C0.783084 -0.3107 0.7676 -0.309758 0.748279 -0.307873C0.738862 -0.306954 0.720985 -0.305091 0.698704 -0.301803C0.687222 -0.300109 0.62805 -0.29172 0.555446 -0.269818L1.13306 1.64496C1.06064 1.6668 1.00176 1.67513 0.990658 1.67677C0.968761 1.68 0.951365 1.68181 0.942526 1.68267C0.924362 1.68444 0.910424 1.68527 0.905713 1.68555C0.899393 1.68591 0.894659 1.68612 0.892454 1.68621C0.889985 1.68631 0.888337 1.68637 0.887801 1.68638C0.887 1.68641 0.890938 1.68629 0.902439 1.6861C0.924114 1.68574 0.958626 1.68534 1.00706 1.68494C1.1031 1.68413 1.24484 1.68336 1.42825 1.68264C1.79463 1.6812 2.32244 1.67998 2.97284 1.67902C4.27339 1.67711 6.06167 1.67629 8.02365 1.67703L8.0244 -0.322975ZM1.57051 2.41409C1.59699 2.43961 1.62024 2.45898 1.62122 2.4598C1.62829 2.46577 1.63438 2.47076 1.63806 2.47376C1.64573 2.48001 1.65348 2.48621 1.65982 2.49125C1.67303 2.50175 1.6898 2.51492 1.70873 2.52973C1.74707 2.55972 1.80076 2.60145 1.86686 2.65268C1.99941 2.75541 2.1857 2.8993 2.40755 3.07037C2.85144 3.41267 3.43973 3.86538 4.02967 4.31879C5.18279 5.20503 6.41044 6.14696 6.49422 6.20419L7.62241 4.55277C7.62572 4.55503 7.35393 4.34835 6.8792 3.98469C6.429 3.63981 5.83789 3.18606 5.24843 2.73303C4.65898 2.27999 4.0716 1.82798 3.62886 1.48658C3.40739 1.3158 3.22263 1.17309 3.09204 1.07188C3.02658 1.02115 2.97568 0.981576 2.94088 0.954357C2.92324 0.940561 2.91129 0.931152 2.90421 0.92552C2.8686 0.897219 2.91562 0.932801 2.95845 0.974078L1.57051 2.41409ZM6.49429 6.20424C6.7321 6.36667 7.05162 6.50509 7.32268 6.57749L7.83878 4.64523C7.81013 4.63758 7.76285 4.62133 7.71034 4.59791C7.6856 4.58689 7.66402 4.57619 7.64693 4.56694C7.62906 4.55727 7.62135 4.55205 7.62235 4.55273L6.49429 6.20424ZM7.32268 6.57749C7.58058 6.64638 7.72743 6.65285 8.00003 6.65285V4.65285C7.9433 4.65285 7.90717 4.65253 7.8812 4.65186C7.85615 4.65121 7.84982 4.65043 7.85281 4.65072C7.85864 4.6513 7.86623 4.65248 7.87118 4.65349C7.87252 4.65376 7.86597 4.65249 7.83878 4.64523L7.32268 6.57749ZM8.00003 6.65285C8.27262 6.65285 8.41948 6.64638 8.67737 6.57749L8.16128 4.64523C8.13409 4.65249 8.12753 4.65376 8.12888 4.65349C8.13383 4.65248 8.14142 4.6513 8.14725 4.65072C8.15024 4.65043 8.1439 4.65121 8.11886 4.65186C8.09288 4.65253 8.05676 4.65285 8.00003 4.65285V6.65285ZM8.67737 6.57749C8.94844 6.50509 9.26796 6.36667 9.50577 6.20424L8.37771 4.55273C8.37871 4.55205 8.371 4.55727 8.35313 4.56694C8.33603 4.57619 8.31446 4.58689 8.28972 4.59791C8.2372 4.62133 8.18993 4.63758 8.16128 4.64523L8.67737 6.57749ZM9.50584 6.20419C9.58961 6.14696 10.8173 5.20503 11.9704 4.31879C12.5603 3.86538 13.1486 3.41267 13.5925 3.07037C13.8144 2.8993 14.0007 2.75541 14.1332 2.65268C14.1993 2.60145 14.253 2.55972 14.2913 2.52973C14.3103 2.51492 14.327 2.50175 14.3402 2.49125C14.3466 2.48621 14.3543 2.48001 14.362 2.47376C14.3657 2.47076 14.3718 2.46577 14.3788 2.4598C14.3798 2.45898 14.4031 2.43961 14.4296 2.41409L13.0416 0.974078C13.0844 0.932801 13.1315 0.897219 13.0959 0.92552C13.0888 0.931152 13.0768 0.940561 13.0592 0.954357C13.0244 0.981576 12.9735 1.02115 12.908 1.07188C12.7774 1.17309 12.5927 1.3158 12.3712 1.48658C11.9285 1.82798 11.3411 2.27999 10.7516 2.73303C10.1622 3.18606 9.57106 3.63981 9.12086 3.98469C8.64613 4.34835 8.37434 4.55503 8.37765 4.55277L9.50584 6.20419ZM14.4294 2.41426C14.4411 2.40295 14.5171 2.33165 14.5862 2.22097C14.6556 2.10986 14.8025 1.82164 14.7087 1.44629C14.6166 1.07815 14.3592 0.893532 14.2485 0.827511C14.1316 0.75783 14.0275 0.728413 13.9869 0.717641C13.8525 0.681974 13.715 0.67868 13.6948 0.67776C13.5772 0.672419 13.3691 0.669598 13.0098 0.667693C12.2769 0.663809 10.8315 0.663681 8.00003 0.663681V2.66368C10.8353 2.66368 12.2732 2.66382 12.9992 2.66767C13.3692 2.66963 13.5344 2.67254 13.604 2.6757C13.6773 2.67903 13.5868 2.68068 13.474 2.65076C13.4388 2.64142 13.3386 2.61349 13.2243 2.54535C13.1161 2.48087 12.86 2.29784 12.7684 1.93134C12.675 1.55764 12.8214 1.27112 12.8897 1.16176C12.9577 1.05283 13.032 0.983351 13.0418 0.973906L14.4294 2.41426ZM8.00003 0.663681C5.16858 0.663681 3.72314 0.663809 2.99029 0.667693C2.63096 0.669598 2.42284 0.672419 2.3053 0.67776C2.28505 0.67868 2.14758 0.681974 2.01315 0.717641C1.97255 0.728413 1.86844 0.757829 1.75157 0.827511C1.64084 0.893531 1.38341 1.07814 1.29138 1.44629C1.19755 1.82163 1.3445 2.10986 1.41387 2.22097C1.48298 2.33165 1.55894 2.40295 1.57068 2.41426L2.95827 0.973906C2.96807 0.983351 3.04235 1.05283 3.11036 1.16176C3.17864 1.27112 3.32509 1.55765 3.23167 1.93135C3.14005 2.29785 2.88394 2.48087 2.77579 2.54535C2.66151 2.61349 2.56123 2.64142 2.52605 2.65076C2.41328 2.68068 2.32279 2.67903 2.39608 2.6757C2.46561 2.67254 2.63081 2.66963 3.00089 2.66767C3.72688 2.66382 5.16472 2.66368 8.00003 2.66368V0.663681ZM0.504028 6.52573V10.6717H2.50403V6.52573H0.504028ZM1.50403 11.6717H8.00003V9.67168H1.50403V11.6717ZM8.00003 11.6717H14.496V9.67168H8.00003V11.6717ZM15.496 10.6717V6.52573H13.496V10.6717H15.496ZM15.496 6.52573C15.496 4.86892 15.495 3.83073 15.492 3.20812C15.4905 2.89801 15.4885 2.68521 15.4857 2.54901C15.4843 2.48348 15.4826 2.42311 15.4798 2.37494C15.4787 2.35698 15.4759 2.31029 15.4682 2.25815C15.4668 2.24827 15.4549 2.15727 15.4158 2.0512C15.4075 2.02891 15.3384 1.82363 15.1408 1.6481C15.0201 1.54096 14.8037 1.40407 14.5032 1.39601C14.2021 1.38793 13.9778 1.51354 13.8505 1.61561L15.1016 3.17598C14.9745 3.27785 14.7505 3.40336 14.4496 3.39529C14.1493 3.38724 13.9332 3.25045 13.8128 3.14353C13.6156 2.96844 13.547 2.76401 13.5392 2.74302C13.5011 2.63953 13.4901 2.55285 13.4895 2.54914C13.4837 2.50935 13.4826 2.48237 13.4832 2.4923C13.4836 2.49991 13.4848 2.52803 13.4861 2.59012C13.4886 2.70916 13.4905 2.90815 13.492 3.2178C13.495 3.83469 13.496 4.86788 13.496 6.52573H15.496ZM13.8505 1.61561C13.7311 1.71134 12.5141 2.64648 11.2958 3.58016C10.6912 4.04356 10.0922 4.50208 9.63899 4.84825C9.15426 5.21852 8.89483 5.41478 8.91046 5.40444L10.0139 7.07249C10.0736 7.033 10.4303 6.76056 10.853 6.43761C11.3074 6.09056 11.9073 5.63134 12.5124 5.16756C13.7137 4.24687 14.9596 3.28981 15.1016 3.17598L13.8505 1.61561ZM8.91046 5.40444C8.51355 5.66701 7.95096 5.74559 7.44288 5.57705L6.81318 7.47534C7.87694 7.8282 9.08213 7.6889 10.0139 7.07249L8.91046 5.40444ZM7.44295 5.57708C7.34623 5.54498 7.18038 5.46449 7.08958 5.40443L5.98616 7.0725C6.22121 7.22799 6.54595 7.38667 6.8131 7.47531L7.44295 5.57708ZM7.08959 5.40444C7.10523 5.41478 6.8458 5.21852 6.36107 4.84825C5.90789 4.50208 5.30887 4.04356 4.70423 3.58016C3.48598 2.64648 2.26898 1.71134 2.14957 1.61561L0.898483 3.17598C1.04046 3.28981 2.28631 4.24687 3.48762 5.16756C4.09275 5.63134 4.69268 6.09056 5.14701 6.43761C5.5698 6.76056 5.92645 7.033 5.98614 7.07249L7.08959 5.40444ZM2.14958 1.61561C2.02227 1.51354 1.79799 1.38793 1.49685 1.39601C1.19634 1.40407 0.979913 1.54096 0.859272 1.6481C0.661618 1.82362 0.592512 2.02891 0.584297 2.0512C0.545192 2.15727 0.533264 2.24827 0.531811 2.25815C0.524143 2.31029 0.521359 2.35698 0.520303 2.37494C0.517471 2.42311 0.515719 2.48348 0.514371 2.54901C0.511571 2.68521 0.509548 2.89801 0.508046 3.20812C0.50503 3.83073 0.504028 4.86892 0.504028 6.52573H2.50403C2.50403 4.86788 2.50503 3.83469 2.50802 3.2178C2.50952 2.90815 2.5115 2.70917 2.51395 2.59012C2.51523 2.52803 2.51641 2.49991 2.51686 2.4923C2.51744 2.48237 2.51638 2.50935 2.51053 2.54915C2.50998 2.55285 2.49898 2.63953 2.46083 2.74302C2.45309 2.76401 2.38447 2.96844 2.1873 3.14353C2.06691 3.25045 1.85072 3.38724 1.55047 3.39529C1.24957 3.40336 1.02553 3.27785 0.898477 3.17598L2.14958 1.61561Z" fill="#697586" mask="url(#path-1-inside-1_651_8828)"/>
</svg>
