<svg width="15" height="16" viewBox="0 0 15 16" fill="none" xmlns="http://www.w3.org/2000/svg">
<path d="M12.4829 6.66246H9.63717C9.55966 6.66244 9.48292 6.67789 9.41145 6.70789C9.33998 6.7379 9.27521 6.78185 9.22093 6.83719C9.16666 6.89253 9.12397 6.95814 9.09536 7.03018C9.06675 7.10222 9.05279 7.17925 9.05431 7.25674V8.86817C9.05431 9.02276 9.11572 9.17101 9.22503 9.28032C9.33434 9.38962 9.48259 9.45103 9.63717 9.45103H11.1115C11.1197 9.89277 11.0348 10.3313 10.8621 10.738C10.6895 11.1446 10.433 11.5104 10.1095 11.8112C9.78595 12.1121 9.40262 12.3414 8.9845 12.4841C8.56638 12.6269 8.12286 12.6798 7.68288 12.6396C5.12289 12.6396 3.8886 10.4682 3.8886 7.9996C3.8886 5.53103 5.21431 3.3596 7.68288 3.3596C8.77271 3.32344 9.84061 3.67132 10.7 4.34246C10.7687 4.38742 10.8465 4.41672 10.9277 4.4283C11.009 4.43987 11.0918 4.43344 11.1703 4.40945C11.2488 4.38546 11.3211 4.3445 11.382 4.28948C11.443 4.23445 11.4911 4.1667 11.5229 4.09103L12.2429 2.44532C12.3021 2.32402 12.3174 2.18593 12.2861 2.05461C12.2549 1.9233 12.179 1.80691 12.0715 1.72532C10.7609 0.941655 9.25513 0.545397 7.7286 0.582459C3.5686 0.571031 0.734314 3.80532 0.734314 7.9996C0.734314 12.1939 3.58003 15.4282 7.68288 15.4282C11.7857 15.4282 14.2657 12.5025 14.2657 8.57103C14.2657 7.31389 13.7629 6.66246 12.4829 6.66246Z" stroke="#EEF2F6" stroke-linecap="round" stroke-linejoin="round"/>
</svg>
