<svg width="16" height="16" viewBox="0 0 16 16" fill="none" xmlns="http://www.w3.org/2000/svg">
<path d="M0.571432 11.76C0.570879 11.9054 0.609953 12.0482 0.684456 12.173C0.758959 12.2978 0.866074 12.4 0.994289 12.4686C1.12032 12.5441 1.2645 12.584 1.41143 12.584C1.55837 12.584 1.70254 12.5441 1.82858 12.4686L7.63429 8.69713C7.74755 8.62482 7.84078 8.52514 7.90535 8.40729C7.96993 8.28944 8.00378 8.15723 8.00378 8.02285C8.00378 7.88847 7.96993 7.75625 7.90535 7.63841C7.84078 7.52056 7.74755 7.42088 7.63429 7.34856L1.82858 3.55428C1.70254 3.47874 1.55837 3.43884 1.41143 3.43884C1.2645 3.43884 1.12032 3.47874 0.994289 3.55428C0.866074 3.62281 0.758959 3.72499 0.684456 3.84984C0.609953 3.97468 0.570879 4.11747 0.571432 4.26285V11.76Z" stroke="#0D121C" stroke-linecap="round" stroke-linejoin="round"/>
<path d="M15.4286 2.85715V13.1429M8.00001 11.76C7.99945 11.9054 8.03853 12.0482 8.11303 12.173C8.18753 12.2979 8.29465 12.4 8.42286 12.4686C8.54889 12.5441 8.69307 12.584 8.84001 12.584C8.98694 12.584 9.13112 12.5441 9.25715 12.4686L15.0629 8.69715C15.1761 8.62483 15.2693 8.52515 15.3339 8.4073C15.3985 8.28946 15.4324 8.15724 15.4324 8.02286C15.4324 7.88848 15.3985 7.75627 15.3339 7.63842C15.2693 7.52057 15.1761 7.42089 15.0629 7.34858L9.25715 3.55429C9.13112 3.47875 8.98694 3.43886 8.84001 3.43886C8.69307 3.43886 8.54889 3.47875 8.42286 3.55429C8.29802 3.62097 8.19311 3.71957 8.11882 3.84004C8.04453 3.9605 8.00353 4.09852 8.00001 4.24V11.76Z" stroke="#0D121C" stroke-linecap="round" stroke-linejoin="round"/>
</svg>
