<svg width="16" height="16" viewBox="0 0 16 16" fill="none" xmlns="http://www.w3.org/2000/svg">
<path d="M15.4286 11.76C15.4291 11.9054 15.3901 12.0482 15.3155 12.173C15.241 12.2978 15.1339 12.4 15.0057 12.4686C14.8797 12.5441 14.7355 12.584 14.5886 12.584C14.4416 12.584 14.2975 12.5441 14.1714 12.4686L8.36571 8.67428C8.25245 8.60196 8.15923 8.50228 8.09465 8.38443C8.03007 8.26659 7.99622 8.13437 7.99622 7.99999C7.99622 7.86561 8.03007 7.7334 8.09465 7.61555C8.15923 7.4977 8.25245 7.39802 8.36571 7.32571L14.1714 3.55428C14.2975 3.47874 14.4416 3.43884 14.5886 3.43884C14.7355 3.43884 14.8797 3.47874 15.0057 3.55428C15.1339 3.62281 15.241 3.72499 15.3155 3.84984C15.3901 3.97468 15.4291 4.11747 15.4286 4.26285V11.76Z" stroke="#0D121C" stroke-linecap="round" stroke-linejoin="round"/>
<path d="M0.571429 2.85715V13.1429M8 11.76C8.00055 11.9054 7.96148 12.0482 7.88698 12.173C7.81247 12.2979 7.70536 12.4 7.57714 12.4686C7.45111 12.5441 7.30693 12.584 7.16 12.584C7.01307 12.584 6.86889 12.5441 6.74286 12.4686L0.937143 8.67429C0.823879 8.60197 0.730657 8.50229 0.66608 8.38445C0.601503 8.2666 0.567653 8.13438 0.567653 8C0.567653 7.86562 0.601503 7.73341 0.66608 7.61556C0.730657 7.49771 0.823879 7.39803 0.937143 7.32572L6.74286 3.55429C6.86889 3.47875 7.01307 3.43886 7.16 3.43886C7.30693 3.43886 7.45111 3.47875 7.57714 3.55429C7.70198 3.62097 7.8069 3.71957 7.88118 3.84004C7.95547 3.9605 7.99647 4.09852 8 4.24V11.76Z" stroke="#0D121C" stroke-linecap="round" stroke-linejoin="round"/>
</svg>
