<svg width="16" height="14" viewBox="0 0 16 14" fill="none" xmlns="http://www.w3.org/2000/svg">
<path d="M2.85713 8.14328L0.822845 11.0576C0.731083 11.2363 0.688049 11.436 0.698081 11.6367C0.708114 11.8373 0.770857 12.0318 0.879988 12.2004C0.982925 12.3651 1.12614 12.5009 1.29611 12.5949C1.46608 12.6888 1.65719 12.738 1.85142 12.7376H14.1486C14.3428 12.738 14.5339 12.6888 14.7039 12.5949C14.8738 12.5009 15.0171 12.3651 15.12 12.2004C15.2203 12.0267 15.2731 11.8296 15.2731 11.629C15.2731 11.4284 15.2203 11.2313 15.12 11.0576L13.1428 8.14328M2.85713 8.14328V2.42899C2.85713 2.12589 2.97754 1.8352 3.19187 1.62087C3.40619 1.40654 3.69688 1.28613 3.99999 1.28613H12C12.3031 1.28613 12.5938 1.40654 12.8081 1.62087C13.0224 1.8352 13.1428 2.12589 13.1428 2.42899V8.14328M2.85713 8.14328H13.1428" stroke="#4B5565" stroke-linecap="round" stroke-linejoin="round"/>
</svg>
