<svg width="118" height="18" viewBox="0 0 118 18" fill="none" xmlns="http://www.w3.org/2000/svg">
<path d="M8.77135 12.1145L8.79198 12.2176C10.0916 12.1764 11.3705 12.1764 12.5669 12.1764C15.2486 12.1764 16.6925 12.1351 18.0746 12.0939C18.0127 12.7746 18.0127 13.8885 18.0127 14.528C18.0127 15.2087 18.0334 15.8894 18.0746 16.7352H0.190063C0.23132 15.9513 0.23132 15.25 0.23132 14.5899C0.23132 13.7441 0.23132 12.7127 0.210692 12.2589C1.9022 11.3513 4.60448 9.28846 7.18299 7.43193C8.07 6.79246 8.99826 6.27675 9.86464 5.84356L9.82339 5.71979C8.62696 5.78168 7.38927 5.80231 6.02782 5.80231C3.03674 5.80231 1.63403 5.82293 0.251948 5.84356C0.272576 5.18346 0.293204 4.1108 0.293204 3.51259C0.293204 2.87312 0.293204 2.02736 0.251948 1.26412H18.0334C18.0127 2.00674 17.9921 2.66684 17.9921 3.32694C17.9921 4.04892 17.9921 5.30723 18.0334 5.90545C16.5069 6.7512 14.3203 8.46333 11.8656 10.3405C10.7104 11.145 9.72025 11.6607 8.77135 12.1145Z" fill="#0D121C"/>
<path d="M42.701 1.26412H48.3737C47.1567 4.93593 44.64 14.4042 44.0418 16.7352C43.0929 16.7146 41.7521 16.6939 40.2256 16.6939C38.2041 16.6939 36.6569 16.7146 36.0794 16.7352C35.8112 15.4769 35.1924 12.7333 34.656 10.1136C34.4497 8.97903 34.2435 7.70009 34.0784 6.54492H33.9134C33.7278 7.72072 33.5008 9.06155 33.2533 10.1755C32.6757 12.6096 32.0156 15.3325 31.6856 16.7352C30.9842 16.7352 29.5403 16.6939 28.2613 16.6939C26.1985 16.6939 24.9814 16.7146 24.342 16.7352C23.5994 14.0329 21.289 4.95655 19.9688 1.26412H26.9617C27.0855 2.35741 27.8487 6.66869 28.447 9.51536C28.6326 10.4436 28.7976 11.3513 28.9627 12.0939H29.0864C29.2515 11.3306 29.4577 10.423 29.664 9.47411C30.2416 6.62743 31.0667 2.76998 31.2318 1.26412C32.0569 1.28475 34.0372 1.30538 35.1098 1.30538C36.1 1.30538 37.7296 1.28475 38.4928 1.26412C38.6785 2.64621 39.318 6.62743 39.9987 9.55662C40.2669 10.5674 40.4319 11.4544 40.5763 12.1764H40.7001C40.8238 11.4338 40.9682 10.5674 41.1951 9.55662C41.7727 6.62743 42.4947 2.76998 42.701 1.26412Z" fill="#0D121C"/>
<path d="M70.6931 8.77275C70.6931 14.2392 67.537 17.1478 59.9459 17.1478C52.3753 17.1478 49.343 14.2392 49.343 8.77275C49.343 3.26505 52.7673 0.851562 59.9665 0.851562C67.1657 0.851562 70.6931 3.26505 70.6931 8.77275ZM59.9665 12.6302C62.8338 12.6302 63.9683 11.3719 63.9683 8.81401C63.9683 6.27675 62.8132 5.14221 59.9665 5.14221C57.1404 5.14221 55.9646 6.25613 55.9646 8.81401C55.9646 11.3925 57.1198 12.6302 59.9665 12.6302Z" fill="#0D121C"/>
<path d="M94.4487 8.77275C94.4487 14.2392 91.2926 17.1478 83.7015 17.1478C76.131 17.1478 73.0986 14.2392 73.0986 8.77275C73.0986 3.26505 76.5229 0.851562 83.7221 0.851562C90.9213 0.851562 94.4487 3.26505 94.4487 8.77275ZM83.7221 12.6302C86.5894 12.6302 87.724 11.3719 87.724 8.81401C87.724 6.27675 86.5688 5.14221 83.7221 5.14221C80.896 5.14221 79.7203 6.25613 79.7203 8.81401C79.7203 11.3925 80.8754 12.6302 83.7221 12.6302Z" fill="#0D121C"/>
<path d="M109.644 1.26412H117.379C115.585 3.4507 112.532 7.59695 110.077 9.12343C111.459 9.63913 112.532 10.588 113.481 11.8463C115.956 14.6518 117.029 16.0751 117.627 16.7352H110.531C109.644 16.7352 109.252 16.5495 108.901 16.0132C107.622 14.4249 105.827 12.0526 104.342 10.8562H104.157C104.157 13.0221 104.177 14.9199 104.26 16.7352H97.6175C97.7 14.3836 97.7206 12.2795 97.7206 8.99966C97.7206 5.7198 97.7 3.57447 97.6175 1.26412H104.26C104.157 3.36819 104.157 5.69917 104.157 8.27768H104.301C105.044 7.43193 105.827 6.58618 106.508 5.76105C108.097 3.80138 108.963 2.35741 109.644 1.26412Z" fill="#0D121C"/>
</svg>
