<svg width="16" height="16" viewBox="0 0 16 16" fill="none" xmlns="http://www.w3.org/2000/svg">
<path fill-rule="evenodd" clip-rule="evenodd" d="M7.71202 0.00377765C7.40202 0.0175824 7.16636 0.0379856 6.89922 0.0741456C5.80527 0.222222 4.72407 0.613378 3.77282 1.20523C3.01814 1.67477 2.32982 2.28561 1.75939 2.99202C1.17447 3.71637 0.709951 4.56731 0.409688 5.46452C0.208479 6.06575 0.0838193 6.6688 0.0291185 7.30562C0.00736492 7.55884 0.00339692 7.66572 0.00333932 8.00002C0.00326892 8.38037 0.0127665 8.56893 0.0482865 8.89282C0.177016 10.0665 0.575595 11.2152 1.20523 12.2272C1.74266 13.091 2.46389 13.8659 3.29602 14.4736C3.94176 14.9452 4.68888 15.33 5.46242 15.5895C6.06351 15.7911 6.6677 15.9161 7.30562 15.9709C7.55975 15.9928 7.66542 15.9967 8.00002 15.9967C8.38086 15.9967 8.57001 15.9872 8.89282 15.9518C10.0665 15.823 11.2152 15.4244 12.2272 14.7948C12.6163 14.5527 12.9778 14.2807 13.3504 13.9495C13.4621 13.8502 13.8502 13.4621 13.9495 13.3504C14.4615 12.7744 14.8403 12.2162 15.168 11.5552C15.6135 10.6564 15.8774 9.72453 15.9682 8.73019C15.9801 8.59994 15.9936 8.37607 15.9936 8.30882C15.9936 8.26937 15.9962 8.24322 16 8.24322C16.0042 8.24322 16.0064 8.15669 16.0064 7.99644C16.0064 7.83356 16.0042 7.75101 16 7.75362C15.9959 7.75616 15.9936 7.73395 15.9936 7.6916C15.9936 7.58341 15.9741 7.31183 15.9517 7.10722C15.8235 5.93504 15.4244 4.78472 14.7948 3.77282C14.5051 3.30723 14.1701 2.87662 13.7865 2.47682C13.1181 1.78028 12.3994 1.25051 11.5552 0.832085C10.59 0.353659 9.61833 0.0923536 8.51877 0.0155024C8.39087 0.00656805 7.83186 -0.00155995 7.71202 0.00377765ZM7.85602 1.00252C6.50395 1.03076 5.20478 1.44169 4.08985 2.19379C3.03046 2.90842 2.17213 3.91645 1.6445 5.06562C1.26709 5.8876 1.06203 6.71503 1.01084 7.62242C1.00134 7.79074 1.00136 8.20831 1.01087 8.37762C1.06177 9.28376 1.26717 10.1126 1.6445 10.9344C2.13103 11.9941 2.8943 12.9291 3.85305 13.6399C4.4226 14.0621 5.09906 14.4122 5.79305 14.6437C6.38268 14.8404 6.97772 14.9527 7.62562 14.9893C7.79037 14.9986 8.20966 14.9986 8.37442 14.9893C9.35781 14.9337 10.243 14.7003 11.12 14.2655C11.804 13.9263 12.3947 13.5004 12.9475 12.9475C13.5004 12.3947 13.9263 11.804 14.2655 11.12C14.7003 10.243 14.9337 9.35781 14.9893 8.37442C14.9986 8.20967 14.9986 7.79038 14.9893 7.62562C14.9337 6.64223 14.7003 5.75704 14.2655 4.88002C13.8477 4.03742 13.2689 3.2983 12.5312 2.66554C11.382 1.67979 9.88561 1.08441 8.37442 1.01172C8.22008 1.0043 7.97737 0.999989 7.85602 1.00252ZM7.89762 3.50448C7.88882 3.50601 7.86002 3.51045 7.83362 3.51435C7.55238 3.5559 7.27492 3.74494 7.12077 4.00002C7.10482 4.02642 6.88793 4.48787 6.6388 5.02545L6.18583 6.00289L5.26413 6.00488C4.34828 6.00686 4.34204 6.00696 4.28304 6.02058C4.11699 6.05893 3.96764 6.13414 3.83547 6.24597C3.67846 6.37882 3.55814 6.58982 3.51403 6.80968C3.50157 6.87176 3.49595 6.98939 3.50186 7.06442C3.51725 7.25984 3.58352 7.43586 3.69984 7.59022C3.72502 7.62364 4.00928 7.90833 4.5192 8.41084C5.03293 8.9171 5.29906 9.18367 5.29723 9.19016C5.29571 9.19558 5.10804 9.6277 4.8802 10.1504C4.65235 10.6731 4.45757 11.1258 4.44735 11.1562C4.40866 11.2716 4.40078 11.3249 4.40064 11.472C4.40049 11.6223 4.40921 11.6798 4.45134 11.8062C4.5542 12.1149 4.8106 12.3622 5.12642 12.4575C5.22623 12.4875 5.29384 12.496 5.43042 12.4957C5.537 12.4954 5.5692 12.493 5.62283 12.4814C5.70841 12.4629 5.77648 12.4403 5.84642 12.4071C5.8781 12.3921 6.3749 12.1151 6.95042 11.7916C7.52594 11.4682 8.00258 11.2035 8.00962 11.2035C8.01666 11.2034 8.48898 11.4658 9.05922 11.7865C9.62946 12.1072 10.1219 12.3826 10.1536 12.3985C10.3533 12.4985 10.6005 12.5254 10.832 12.4724C11.1703 12.3948 11.4602 12.1315 11.567 11.8048C11.6004 11.7026 11.6221 11.5753 11.6223 11.4803C11.6225 11.3676 11.5943 11.2155 11.5535 11.1102C11.5433 11.0839 11.3518 10.6419 11.128 10.128C10.9042 9.6141 10.7201 9.19048 10.7189 9.18663C10.7178 9.18279 11.0581 8.84363 11.4752 8.43295C11.8923 8.02227 12.2515 7.6658 12.2733 7.64079C12.4703 7.41527 12.5562 7.10063 12.4998 6.81134C12.4391 6.50044 12.2448 6.24435 11.9622 6.1028C11.8928 6.06801 11.8294 6.04503 11.744 6.02366L11.6768 6.00685L10.752 6.00482L9.82722 6.00279L9.38628 5.051C9.14377 4.52752 8.93126 4.0733 8.91404 4.04162C8.767 3.77109 8.51516 3.58432 8.20982 3.51935C8.1669 3.51022 8.11756 3.50602 8.03202 3.50421C7.9669 3.50283 7.90642 3.50295 7.89762 3.50448ZM7.98863 4.51042C7.98159 4.51658 7.75056 5.00834 7.47524 5.60322C7.19992 6.1981 6.96323 6.70642 6.94927 6.73282C6.88327 6.85766 6.77522 6.94463 6.63362 6.98691C6.5976 6.99767 6.53092 6.99857 5.55758 7.00159L4.51993 7.00482L5.34197 7.81442C6.30843 8.76626 6.29375 8.75144 6.32836 8.80985C6.40239 8.93475 6.41867 9.09026 6.37195 9.22621C6.3636 9.25052 6.14575 9.75426 5.88784 10.3456C5.62993 10.937 5.41365 11.4344 5.40721 11.4509C5.39679 11.4777 5.39656 11.482 5.40515 11.4906C5.41051 11.496 5.41968 11.4985 5.4258 11.4963C5.43186 11.4941 5.96242 11.1972 6.60482 10.8364C7.24722 10.4756 7.78747 10.1737 7.80539 10.1654C7.9256 10.11 8.09301 10.11 8.2141 10.1655C8.23215 10.1737 8.76665 10.4728 9.40187 10.8301C10.0371 11.1874 10.5666 11.4847 10.5785 11.4909C10.5991 11.5015 10.6006 11.5015 10.6116 11.4902C10.6228 11.4788 10.6069 11.4411 10.1435 10.3776C9.87968 9.77218 9.65707 9.2581 9.64881 9.23522C9.59696 9.09177 9.61508 8.92464 9.69632 8.79682C9.71904 8.76109 9.75743 8.71758 9.8234 8.65282C9.8754 8.60178 10.273 8.2101 10.7069 7.78242L11.4958 7.00482L10.4567 7.00159C9.48197 6.99857 9.41524 6.99767 9.37922 6.98691C9.28034 6.95739 9.17642 6.89136 9.1232 6.82425C9.10704 6.80389 9.08134 6.76418 9.06608 6.73602C9.05082 6.70786 8.81292 6.1981 8.53742 5.60322C8.26192 5.00834 8.03086 4.51658 8.02395 4.51042C8.01705 4.50426 8.00916 4.49922 8.00642 4.49922C8.00368 4.49922 7.99567 4.50426 7.98863 4.51042ZM0.00292972 8.00322C0.00292972 8.1405 0.00377452 8.19575 0.00481132 8.126C0.00584812 8.05624 0.00584172 7.94392 0.00480492 7.8764C0.00377452 7.80887 0.00292332 7.86594 0.00292972 8.00322Z" fill="#EFCC44"/>
</svg>
