<svg width="16" height="16" viewBox="0 0 16 16" fill="none" xmlns="http://www.w3.org/2000/svg">
<path d="M1.71428 14.1143C1.71838 14.3524 1.78767 14.5848 1.91461 14.7863C2.04154 14.9878 2.22128 15.1506 2.43428 15.2571C2.64697 15.3773 2.88712 15.4405 3.13142 15.4405C3.37572 15.4405 3.61587 15.3773 3.82856 15.2571L13.7143 9.14284C13.9294 9.03922 14.1109 8.87699 14.2379 8.67482C14.3649 8.47265 14.4323 8.23874 14.4323 7.99999C14.4323 7.76123 14.3649 7.52732 14.2379 7.32515C14.1109 7.12298 13.9294 6.96076 13.7143 6.85713L3.82856 0.788558C3.61587 0.668379 3.37572 0.605225 3.13142 0.605225C2.88712 0.605225 2.64697 0.668379 2.43428 0.788558C2.22128 0.89506 2.04154 1.0579 1.91461 1.25939C1.78767 1.46088 1.71838 1.69331 1.71428 1.93142V14.1143Z" stroke="#0D121C" stroke-linecap="round" stroke-linejoin="round"/>
</svg>
