<svg width="16" height="16" viewBox="0 0 16 16" fill="none" xmlns="http://www.w3.org/2000/svg">
<path d="M3.42857 5.7143H1.71428C1.41118 5.7143 1.12049 5.83471 0.906162 6.04903C0.691834 6.26336 0.571426 6.55405 0.571426 6.85715V9.14287C0.571426 9.44597 0.691834 9.73666 0.906162 9.95099C1.12049 10.1653 1.41118 10.2857 1.71428 10.2857H3.42857M3.42857 5.7143V10.2857M3.42857 5.7143L8 2.50287C8.16556 2.38832 8.35845 2.31953 8.55913 2.30348C8.75982 2.28742 8.96119 2.32466 9.14286 2.41144C9.32068 2.51403 9.46758 2.66262 9.56814 2.8416C9.66869 3.02059 9.71917 3.22335 9.71428 3.42858V12.5714C9.70949 12.7874 9.64361 12.9975 9.52427 13.1775C9.40493 13.3576 9.23702 13.5001 9.04 13.5886C8.85833 13.6754 8.65696 13.7126 8.45628 13.6965C8.25559 13.6805 8.0627 13.6117 7.89714 13.4972L3.42857 10.2857M12 6.28573C12.3973 6.76606 12.6011 7.37736 12.5714 8.00001C12.6011 8.62266 12.3973 9.23397 12 9.7143" stroke="#0D121C" stroke-linecap="round" stroke-linejoin="round"/>
</svg>
