<svg width="16" height="16" viewBox="0 0 16 16" fill="none" xmlns="http://www.w3.org/2000/svg">
<path d="M0.571426 15.4286L15.4286 0.571442M5.14285 5.7143H3.42857C3.12546 5.7143 2.83477 5.83471 2.62045 6.04903C2.40612 6.26336 2.28571 6.55405 2.28571 6.85716V9.14287C2.28571 9.44597 2.40612 9.73666 2.62045 9.95099C2.83477 10.1653 3.12546 10.2857 3.42857 10.2857H5.14285M5.14285 5.7143V10.2857M5.14285 5.7143L9.65714 2.50287C9.8227 2.38832 10.0156 2.31953 10.2163 2.30348C10.417 2.28742 10.6183 2.32467 10.8 2.41144C10.9885 2.50641 11.147 2.65172 11.2579 2.83125C11.3689 3.01079 11.4279 3.21754 11.4286 3.42858V4.57144M5.14285 10.2857L5.47428 10.5257M7.62285 12.0686L9.61143 13.4972C9.77699 13.6117 9.96987 13.6805 10.1706 13.6965C10.3712 13.7126 10.5726 13.6754 10.7543 13.5886C10.9513 13.5001 11.1192 13.3576 11.2386 13.1775C11.3579 12.9975 11.4238 12.7874 11.4286 12.5714V8.00001" stroke="#0D121C" stroke-linecap="round" stroke-linejoin="round"/>
</svg>
